<svg width="267" height="188" viewBox="0 0 267 188" fill="none" xmlns="http://www.w3.org/2000/svg">
<path d="M54.1511 152.656C58.594 149.584 59.7225 143.7 59.6763 138.368C59.6763 137.481 59.7831 136.548 59.395 135.759C59.007 134.969 58.0778 134.416 57.3053 134.77C56.6681 135.063 56.3761 135.823 56.0059 136.447C55.5123 137.282 54.8051 137.954 53.966 138.383C53.4178 138.661 52.7449 138.823 52.2181 138.503C51.5061 138.064 51.4313 136.999 51.4562 136.123C51.5061 134.479 51.5535 132.836 51.5986 131.194C51.6716 130.311 51.6066 129.422 51.4064 128.562C51.3002 128.136 51.0991 127.743 50.8198 127.416C50.5404 127.089 50.1911 126.837 49.8008 126.682C48.9998 126.426 47.9959 126.885 47.8037 127.742C47.7638 128.107 47.7472 128.474 47.7538 128.84C47.7545 129.024 47.7035 129.204 47.6071 129.358C47.5108 129.511 47.3735 129.631 47.2127 129.701C47.0377 129.718 46.8615 129.688 46.7008 129.613C46.5401 129.538 46.4001 129.421 46.2942 129.273C45.4837 128.315 44.8271 127.224 44.3505 126.043C43.8746 124.863 43.2675 123.747 42.542 122.719C41.773 121.726 40.6943 120.929 39.4839 120.839C38.2735 120.749 36.967 121.486 36.6359 122.719C36.3049 123.952 36.967 125.234 37.7039 126.257C38.7946 127.782 40.0884 129.132 41.5452 130.265C41.8288 130.438 42.0532 130.701 42.186 131.017C42.3533 131.611 41.8051 132.179 41.2461 132.36C40.6089 132.563 39.9254 132.476 39.2668 132.54C38.6082 132.604 37.8819 132.89 37.6185 133.533C37.2625 134.428 37.9531 135.39 38.6473 136.026C40.0476 137.304 41.644 138.322 43.3679 139.034C44.0036 139.234 44.5995 139.555 45.1265 139.981C45.6178 140.447 45.9026 141.248 45.5858 141.861C45.2689 142.474 44.4857 142.654 43.8343 142.512C43.2061 142.314 42.5951 142.06 42.008 141.752C40.8545 141.267 39.3522 141.312 38.5833 142.342C38.3458 142.694 38.1899 143.1 38.1281 143.527C38.0662 143.954 38.1002 144.391 38.2273 144.801C38.4932 145.618 38.9121 146.37 39.459 147.012C41.2542 149.372 43.6088 151.188 46.2835 152.276C48.9571 153.322 51.4527 153.649 54.1547 152.694" fill="#7000FF"/>
<path d="M37.882 121.557L37.9638 121.643L38.2095 121.88C38.4266 122.091 38.7435 122.399 39.1458 122.809C40.281 123.964 41.3329 125.207 42.2928 126.528C42.9016 127.359 43.5352 128.302 44.1974 129.325C44.8596 130.348 45.5538 131.453 46.248 132.638C46.9801 133.871 47.6469 135.146 48.2451 136.458C48.5584 137.138 48.8325 137.853 49.1102 138.579C49.3879 139.304 49.6727 140.041 49.9575 140.789C51.0489 143.583 51.9891 146.441 52.7734 149.347C53.4046 151.724 53.8206 154.159 54.0159 156.619C54.1435 158.278 54.1316 159.945 53.9803 161.601C53.9233 162.184 53.8699 162.639 53.8236 162.947C53.8023 163.094 53.788 163.21 53.7738 163.297C53.7714 163.337 53.7714 163.377 53.7738 163.417C53.7858 163.379 53.7953 163.34 53.8023 163.301C53.8023 163.214 53.8379 163.097 53.8628 162.951C53.9198 162.646 53.9838 162.199 54.0515 161.609C54.226 159.949 54.2546 158.276 54.1369 156.611C53.9581 154.142 53.5515 151.696 52.923 149.31C52.1441 146.393 51.2063 143.527 50.1141 140.725C49.8246 139.973 49.5421 139.238 49.2668 138.518C48.9856 137.793 48.7079 137.075 48.3946 136.386C47.7905 135.071 47.1178 133.792 46.3797 132.555C45.6677 131.371 44.977 130.273 44.3149 129.25C43.6527 128.227 43.0084 127.287 42.3889 126.456C41.4148 125.138 40.3434 123.904 39.1849 122.764C38.7755 122.362 38.448 122.057 38.2237 121.858L37.971 121.628C37.914 121.58 37.8855 121.553 37.882 121.557Z" fill="#263238"/>
<path d="M48.3412 136.379C48.3835 136.257 48.4134 136.131 48.4302 136.003C48.4801 135.758 48.5442 135.409 48.6118 134.969C48.7506 134.093 48.9073 132.878 49.071 131.54C49.2348 130.201 49.4057 128.99 49.5588 128.118C49.6335 127.686 49.6976 127.332 49.7439 127.088C49.776 126.965 49.7951 126.839 49.8008 126.712C49.7469 126.832 49.7075 126.958 49.6833 127.088C49.6193 127.325 49.5374 127.674 49.4484 128.107C49.2704 128.975 49.0924 130.186 48.918 131.528C48.7435 132.871 48.6118 134.048 48.505 134.965C48.4516 135.375 48.4053 135.717 48.3733 136.003C48.3489 136.126 48.3381 136.253 48.3412 136.379Z" fill="#263238"/>
<path d="M37.5153 133.988C37.6566 134.023 37.8009 134.045 37.946 134.052C38.2237 134.086 38.6295 134.131 39.1244 134.206C40.1176 134.341 41.4847 134.582 42.9799 134.913C44.4751 135.244 45.8279 135.616 46.7784 135.905C47.2625 136.048 47.6506 136.176 47.9176 136.263C48.0546 136.317 48.1966 136.356 48.3412 136.379C48.2112 136.31 48.0768 136.251 47.9389 136.203C47.6755 136.097 47.291 135.954 46.8104 135.796C45.8528 135.473 44.5107 135.09 43.0119 134.755C41.7322 134.464 40.4395 134.242 39.1386 134.089C38.6367 134.029 38.2308 134.003 37.9531 133.992C37.8077 133.975 37.661 133.974 37.5153 133.988Z" fill="#263238"/>
<path d="M52.7841 149.095C52.8157 149.054 52.842 149.009 52.8624 148.96L53.0582 148.554C53.2256 148.201 53.457 147.685 53.7346 147.05C54.29 145.764 55.002 143.963 55.7603 141.967C56.5186 139.97 57.2199 138.161 57.7468 136.868L58.3769 135.334L58.5478 134.917C58.5834 134.819 58.6012 134.766 58.594 134.766C58.5647 134.808 58.5397 134.854 58.5193 134.901L58.3235 135.308C58.1526 135.661 57.9248 136.176 57.6471 136.812C57.0917 138.097 56.3797 139.899 55.6179 141.895C54.856 143.892 54.1618 145.7 53.6314 146.994C53.3751 147.625 53.1615 148.144 53.0013 148.528L52.834 148.945C52.8113 148.993 52.7945 149.043 52.7841 149.095Z" fill="#263238"/>
<path d="M38.448 143.876C38.448 143.876 38.4943 143.907 38.5868 143.944L39.0034 144.098L40.5413 144.662C41.8371 145.136 43.6207 145.813 45.5894 146.565C47.558 147.317 49.3487 147.975 50.6552 148.422C51.3103 148.648 51.8372 148.821 52.2074 148.934L52.631 149.062C52.7307 149.092 52.7841 149.103 52.7841 149.095C52.7389 149.069 52.6911 149.047 52.6417 149.031L52.2252 148.874L50.6908 148.313C49.395 147.84 47.6114 147.163 45.6428 146.411C43.6741 145.659 41.8798 144.997 40.5769 144.55C39.9218 144.328 39.3914 144.151 39.0247 144.038L38.5975 143.91C38.5489 143.894 38.4988 143.882 38.448 143.876Z" fill="#263238"/>
<path d="M198.62 112.98L177.142 112.875C176.527 112.874 175.919 112.744 175.352 112.493C174.785 112.243 174.27 111.877 173.837 111.415C173.405 110.954 173.063 110.407 172.831 109.806C172.599 109.205 172.481 108.561 172.486 107.912L172.713 51.1999C172.717 50.5517 172.841 49.9106 173.079 49.3132C173.317 48.7157 173.664 48.1737 174.1 47.718C174.537 47.2623 175.054 46.9019 175.622 46.6574C176.191 46.4129 176.799 46.2891 177.413 46.2931L198.89 46.3946C200.129 46.3996 201.315 46.9233 202.189 47.851C203.062 48.7786 203.552 50.0344 203.55 51.3427L203.322 108.059C203.32 108.708 203.197 109.351 202.96 109.95C202.722 110.549 202.375 111.093 201.938 111.55C201.501 112.008 200.983 112.369 200.414 112.615C199.844 112.86 199.235 112.984 198.62 112.98Z" fill="#455A64"/>
<path d="M198.862 48.3686H194.696C194.561 48.3706 194.427 48.4007 194.303 48.4574C194.179 48.5141 194.066 48.5961 193.972 48.6988C193.878 48.8015 193.803 48.9229 193.754 49.0559C193.704 49.1889 193.679 49.331 193.682 49.4741V50.2712C193.685 50.5598 193.58 50.838 193.39 51.0456C193.2 51.2532 192.94 51.3735 192.667 51.3804L184.547 51.339C184.411 51.3356 184.276 51.3036 184.152 51.2449C184.027 51.1862 183.915 51.1019 183.821 50.9969C183.728 50.892 183.655 50.7684 183.607 50.6335C183.56 50.4986 183.538 50.355 183.543 50.211V49.4064C183.548 49.2625 183.525 49.1191 183.477 48.9845C183.429 48.8498 183.357 48.7264 183.263 48.6215C183.17 48.5167 183.058 48.4324 182.934 48.3735C182.809 48.3146 182.675 48.2823 182.539 48.2784H181.072H177.427C176.997 48.2759 176.571 48.3628 176.174 48.5342C175.776 48.7056 175.414 48.958 175.108 49.2771C174.803 49.5963 174.56 49.9758 174.393 50.3941C174.227 50.8124 174.14 51.2612 174.137 51.715L173.913 107.073C173.911 107.99 174.254 108.87 174.866 109.52C175.478 110.17 176.31 110.537 177.178 110.54L198.612 110.645C199.48 110.649 200.314 110.29 200.931 109.646C201.549 109.002 201.899 108.125 201.905 107.209L202.126 51.8504C202.129 51.395 202.047 50.9435 201.885 50.5217C201.722 50.0999 201.483 49.7162 201.179 49.3926C200.876 49.0691 200.515 48.812 200.117 48.6363C199.719 48.4606 199.293 48.3696 198.862 48.3686Z" fill="white"/>
<path d="M198.509 86.0361H177.299V87.5364H198.509V86.0361Z" fill="#FF5C00"/>
<path d="M197.754 91.9356C197.754 91.9883 193.226 92.0334 187.644 92.0334C182.062 92.0334 177.53 91.9883 177.53 91.9356C177.53 91.883 182.058 91.8379 187.644 91.8379C193.23 91.8379 197.754 91.883 197.754 91.9356Z" fill="#455A64"/>
<path d="M197.754 56.4C197.754 56.4564 193.226 56.4978 187.644 56.4978C182.062 56.4978 177.53 56.4564 177.53 56.4C177.53 56.3436 182.058 56.3022 187.644 56.3022C193.23 56.3022 197.754 56.3361 197.754 56.4Z" fill="#455A64"/>
<path d="M197.754 94.6656C197.754 94.7183 193.226 94.7634 187.644 94.7634C182.062 94.7634 177.53 94.7183 177.53 94.6656C177.53 94.613 182.058 94.5679 187.644 94.5679C193.23 94.5679 197.754 94.6092 197.754 94.6656Z" fill="#455A64"/>
<path d="M197.754 97.3839C197.754 97.4365 193.226 97.4817 187.644 97.4817C182.062 97.4817 177.53 97.4365 177.53 97.3839C177.53 97.3313 182.058 97.2861 187.644 97.2861C193.23 97.2861 197.754 97.3388 197.754 97.3839Z" fill="#455A64"/>
<path d="M197.754 100.121C197.754 100.174 193.226 100.219 187.644 100.219C182.062 100.219 177.53 100.174 177.53 100.121C177.53 100.069 182.058 100.023 187.644 100.023C193.23 100.023 197.754 100.065 197.754 100.121Z" fill="#455A64"/>
<path d="M197.754 102.847C197.754 102.904 193.226 102.945 187.644 102.945C182.062 102.945 177.53 102.904 177.53 102.847C177.53 102.791 182.058 102.75 187.644 102.75C193.23 102.75 197.754 102.795 197.754 102.847Z" fill="#455A64"/>
<path d="M198.043 105.942C198.043 105.994 193.515 106.039 187.932 106.039C182.35 106.039 177.818 105.994 177.818 105.942C177.818 105.889 182.347 105.844 187.932 105.844C193.518 105.844 198.043 105.885 198.043 105.942Z" fill="#455A64"/>
<path d="M198.794 59.502H177.53V81.231H198.794V59.502Z" fill="#E0E0E0"/>
<path d="M179.178 79.3697L185.063 68.1875L189.873 75.3353L192.795 71.5377L197.146 79.3697H179.178Z" fill="#7000FF"/>
<path d="M191.923 66.0143C191.923 66.334 191.833 66.6466 191.665 66.9125C191.497 67.1784 191.258 67.3856 190.978 67.508C190.698 67.6304 190.391 67.6624 190.094 67.6C189.797 67.5376 189.524 67.3836 189.31 67.1575C189.096 66.9314 188.95 66.6433 188.891 66.3297C188.832 66.0161 188.862 65.691 188.978 65.3955C189.094 65.1001 189.29 64.8476 189.542 64.6699C189.794 64.4923 190.09 64.3975 190.392 64.3975C190.798 64.3985 191.187 64.5691 191.474 64.8721C191.761 65.1751 191.922 65.5858 191.923 66.0143Z" fill="#7000FF"/>
<path d="M197.146 79.43C197.146 79.43 197.146 79.3999 197.146 79.3397C197.146 79.2796 197.146 79.1931 197.146 79.0878C197.146 78.8547 197.146 78.5313 197.146 78.1102C197.146 77.2492 197.146 76.0008 197.121 74.4179C197.121 71.2444 197.096 66.7249 197.078 61.2992L197.164 61.3895H179.2C179.175 61.412 179.388 61.1864 179.299 61.2842V66.1722C179.299 67.7702 179.299 69.3344 179.299 70.8534C179.299 73.899 179.299 76.7754 179.299 79.4224L179.21 79.3284L192.201 79.3773L195.868 79.3999H196.84H197.089H197.178H197.099H196.857H195.903L192.258 79.4224L179.21 79.4713H179.121V79.3773C179.121 76.7453 179.121 73.8539 179.121 70.8083C179.121 69.3043 179.121 67.7251 179.121 66.1271V61.2391C179.029 61.3331 179.242 61.1037 179.225 61.13H197.188H197.224V61.288C197.203 66.74 197.188 71.2783 197.178 74.4668C197.178 76.0384 197.178 77.2792 197.156 78.1365C197.156 78.5501 197.156 78.8697 197.156 79.0953C197.156 79.1968 197.156 79.2758 197.156 79.3397C197.157 79.3702 197.153 79.4006 197.146 79.43Z" fill="#455A64"/>
<path d="M87.0206 27.0645V77.1553C87.0206 79.5537 88.8615 81.498 91.1324 81.498H162.774C165.045 81.498 166.886 79.5537 166.886 77.1553V27.0645C166.886 24.6661 165.045 22.7217 162.774 22.7217L91.1324 22.7217C88.8615 22.7217 87.0206 24.6661 87.0206 27.0645Z" fill="#455A64"/>
<path d="M92.4817 24.5756V79.6445H159.178V24.5756L92.4817 24.5756Z" fill="white"/>
<path d="M162.87 49.854C163.292 49.854 163.705 49.9863 164.057 50.2342C164.408 50.4821 164.682 50.8344 164.843 51.2467C165.005 51.6589 165.047 52.1125 164.965 52.5501C164.883 52.9878 164.679 53.3897 164.38 53.7052C164.082 54.0207 163.701 54.2356 163.287 54.3227C162.872 54.4097 162.443 54.365 162.053 54.1943C161.662 54.0235 161.329 53.7344 161.094 53.3634C160.859 52.9924 160.734 52.5562 160.734 52.11C160.734 51.5117 160.959 50.9379 161.36 50.5148C161.76 50.0917 162.304 49.854 162.87 49.854Z" fill="#263238"/>
<path d="M89.3204 43.7176V60.5022C89.3204 60.7556 89.5148 60.9609 89.7547 60.9609H89.7689C90.0088 60.9609 90.2033 60.7556 90.2033 60.5022V43.7176C90.2033 43.4642 90.0088 43.2589 89.7689 43.2589H89.7547C89.5148 43.2589 89.3204 43.4642 89.3204 43.7176Z" fill="#263238"/>
<path d="M144.116 28.7114H122.905V30.2117H144.116V28.7114Z" fill="#FF5C00"/>
<path d="M116.487 54.4785H95.2762V55.9788H116.487V54.4785Z" fill="#FF5C00"/>
<path d="M149.281 34.2911C149.281 34.3475 143.379 34.3889 136.109 34.3889C128.84 34.3889 122.92 34.3475 122.92 34.2911C122.92 34.2347 128.822 34.1934 136.109 34.1934C143.397 34.1934 149.281 34.2385 149.281 34.2911Z" fill="#455A64"/>
<path d="M149.281 37.566C149.281 37.6187 143.379 37.6638 136.109 37.6638C128.84 37.6638 122.92 37.6187 122.92 37.566C122.92 37.5134 128.822 37.4683 136.109 37.4683C143.397 37.4683 149.281 37.5096 149.281 37.566Z" fill="#455A64"/>
<path d="M149.281 40.8375C149.281 40.8901 143.379 40.9353 136.109 40.9353C128.84 40.9353 122.92 40.8901 122.92 40.8375C122.92 40.7849 128.822 40.7397 136.109 40.7397C143.397 40.7397 149.281 40.7849 149.281 40.8375Z" fill="#455A64"/>
<path d="M149.281 44.1085C149.281 44.1649 143.379 44.2063 136.109 44.2063C128.84 44.2063 122.92 44.1649 122.92 44.1085C122.92 44.0521 128.822 44.0107 136.109 44.0107C143.397 44.0107 149.281 44.0559 149.281 44.1085Z" fill="#455A64"/>
<path d="M149.281 47.3761C149.281 47.4287 143.379 47.4738 136.109 47.4738C128.84 47.4738 122.92 47.4287 122.92 47.3761C122.92 47.3234 128.822 47.2783 136.109 47.2783C143.397 47.2783 149.281 47.3272 149.281 47.3761Z" fill="#455A64"/>
<path d="M143.496 50.6549C143.496 50.7075 138.886 50.7526 133.201 50.7526C127.516 50.7526 122.905 50.7075 122.905 50.6549C122.905 50.6022 127.512 50.5571 133.201 50.5571C138.89 50.5571 143.496 50.6022 143.496 50.6549Z" fill="#455A64"/>
<path d="M130.111 60.378C130.111 60.4307 122.364 60.4758 112.809 60.4758C103.254 60.4758 95.5077 60.4307 95.5077 60.378C95.5077 60.3254 103.254 60.2803 112.809 60.2803C122.364 60.2803 130.111 60.3216 130.111 60.378Z" fill="#455A64"/>
<path d="M130.111 63.1041C130.111 63.1605 122.364 63.2019 112.809 63.2019C103.254 63.2019 95.5077 63.1605 95.5077 63.1041C95.5077 63.0477 103.254 63.0063 112.809 63.0063C122.364 63.0063 130.111 63.0515 130.111 63.1041Z" fill="#455A64"/>
<path d="M130.111 65.8336C130.111 65.8862 122.364 65.9314 112.809 65.9314C103.254 65.9314 95.5077 65.8862 95.5077 65.8336C95.5077 65.781 103.254 65.7358 112.809 65.7358C122.364 65.7358 130.111 65.7772 130.111 65.8336Z" fill="#455A64"/>
<path d="M130.111 68.5597C130.111 68.6161 122.364 68.6574 112.809 68.6574C103.254 68.6574 95.5077 68.6161 95.5077 68.5597C95.5077 68.5033 103.254 68.4619 112.809 68.4619C122.364 68.4619 130.111 68.507 130.111 68.5597Z" fill="#455A64"/>
<path d="M130.111 71.2897C130.111 71.3423 122.364 71.3874 112.809 71.3874C103.254 71.3874 95.5077 71.3423 95.5077 71.2897C95.5077 71.237 103.254 71.1919 112.809 71.1919C122.364 71.1919 130.111 71.237 130.111 71.2897Z" fill="#455A64"/>
<path d="M116.772 27.9404H95.5077V49.6695H116.772V27.9404Z" fill="#7000FF"/>
<path d="M97.1559 47.8121L103.041 36.6299L107.85 43.7739L110.773 39.98L115.123 47.8121H97.1559Z" fill="#E0E0E0"/>
<path d="M109.901 34.4529C109.901 34.7728 109.812 35.0858 109.645 35.3522C109.477 35.6185 109.238 35.8263 108.958 35.9493C108.679 36.0722 108.371 36.1048 108.074 36.0428C107.776 35.9809 107.503 35.8272 107.289 35.6012C107.074 35.3753 106.928 35.0872 106.869 34.7735C106.809 34.4597 106.84 34.1344 106.955 33.8388C107.071 33.5431 107.267 33.2904 107.519 33.1126C107.771 32.9348 108.067 32.8398 108.37 32.8398C108.775 32.8398 109.164 33.0097 109.451 33.3121C109.738 33.6145 109.9 34.0247 109.901 34.4529Z" fill="#E0E0E0"/>
<path d="M115.123 47.8722C115.123 47.8722 115.123 47.8384 115.123 47.782C115.123 47.7256 115.123 47.6353 115.123 47.53C115.123 47.2969 115.123 46.9698 115.123 46.5524C115.123 45.6876 115.123 44.4431 115.102 42.8601C115.102 39.6867 115.077 35.1672 115.059 29.7415L115.145 29.8317H97.1809C97.156 29.8543 97.3696 29.6324 97.2806 29.7302V32.1855C97.2806 32.9976 97.2806 33.806 97.2806 34.6032V39.2844C97.2806 42.33 97.2806 45.2064 97.2806 47.8534L97.1916 47.7594L110.182 47.8045L113.845 47.8308H114.817H115.07H115.159H115.081H114.838H113.884L110.239 47.8572L97.1916 47.9023H97.1026V47.8083C97.1026 45.1763 97.1026 42.2848 97.1026 39.2392C97.1026 37.7177 97.1026 36.1573 97.1026 34.558V29.67C97.01 29.764 97.2236 29.5347 97.2058 29.5572H115.17H115.259V29.6512C115.241 35.0995 115.227 39.6416 115.216 42.83C115.216 44.4017 115.198 45.6425 115.194 46.4998C115.194 46.9096 115.194 47.2518 115.194 47.4586C115.194 47.5601 115.194 47.6391 115.194 47.703C115.192 47.7669 115.167 47.8274 115.123 47.8722Z" fill="#455A64"/>
<path d="M149.933 57.3589H134.885V72.7373H149.933V57.3589Z" fill="#7000FF"/>
<path d="M136.052 71.4213L140.214 63.5103L143.621 68.5675L145.689 65.8791L148.765 71.4213H136.052Z" fill="#E0E0E0"/>
<path d="M145.07 61.9683C145.07 62.1914 145.007 62.4095 144.89 62.595C144.773 62.7805 144.606 62.9251 144.411 63.0105C144.216 63.0958 144.001 63.1182 143.794 63.0747C143.586 63.0311 143.396 62.9237 143.247 62.7659C143.097 62.6082 142.996 62.4072 142.954 62.1884C142.913 61.9696 142.934 61.7428 143.015 61.5367C143.096 61.3306 143.233 61.1544 143.409 61.0304C143.584 60.9065 143.791 60.8403 144.002 60.8403C144.285 60.8403 144.557 60.9592 144.757 61.1707C144.957 61.3823 145.07 61.6692 145.07 61.9683Z" fill="#E0E0E0"/>
<path d="M148.765 71.4627C148.765 71.4627 148.765 71.4402 148.765 71.4026C148.765 71.365 148.765 71.2973 148.765 71.2221C148.765 71.0567 148.765 70.8461 148.765 70.5303C148.765 69.9211 148.765 69.0263 148.765 67.8983C148.765 65.6423 148.747 62.4538 148.733 58.6148L148.794 58.6787H136.081C136.063 58.6787 136.216 58.5359 136.152 58.6073V62.059C136.152 63.187 136.152 64.2912 136.152 65.3715C136.152 67.526 136.152 69.5602 136.152 71.4327L136.092 71.3687L145.248 71.4402H147.84H148.53H148.769C148.769 71.4402 148.751 71.4402 148.715 71.4402H148.545H147.868L145.287 71.459L136.056 71.4928H135.992V71.4251C135.992 69.5451 135.992 67.5185 135.992 65.364V58.6562C135.928 58.7201 136.081 58.5584 136.067 58.5772H148.78H148.844V58.6411C148.844 62.4989 148.819 65.7099 148.812 67.9659C148.812 69.0939 148.812 69.9587 148.794 70.5641C148.794 70.8574 148.794 71.083 148.794 71.2447C148.794 71.3161 148.794 71.3725 148.794 71.4176C148.794 71.4627 148.769 71.4665 148.765 71.4627Z" fill="#455A64"/>
<path d="M160.766 87.439H59.5019C56.6372 87.439 54.3149 89.8917 54.3149 92.9173V159.932C54.3149 162.957 56.6372 165.41 59.5019 165.41H160.766C163.631 165.41 165.953 162.957 165.953 159.932V92.9173C165.953 89.8917 163.631 87.439 160.766 87.439Z" fill="#263238"/>
<path d="M49.6478 159.646H170.599V159.778C170.599 161.553 169.931 163.255 168.743 164.51C167.554 165.765 165.943 166.47 164.262 166.47H55.9846C54.3039 166.47 52.6921 165.765 51.5038 164.51C50.3154 163.255 49.6478 161.553 49.6478 159.778V159.646Z" fill="#263238"/>
<path d="M162.646 90.5371H57.3124V156.382H162.646V90.5371Z" fill="#E0E0E0"/>
<path d="M99.1282 159.646L100.631 162.169H121.748L123.144 159.646H99.1282Z" fill="#455A64"/>
<path d="M157.804 94.9253H60.8262V156.36H157.804V94.9253Z" fill="#FAFAFA"/>
<path d="M64.9665 97.952C64.9672 98.1225 64.92 98.2893 64.8308 98.4314C64.7417 98.5735 64.6146 98.6844 64.4657 98.7502C64.3168 98.8159 64.1528 98.8335 63.9944 98.8007C63.836 98.7679 63.6904 98.6862 63.576 98.5659C63.4617 98.4457 63.3837 98.2923 63.3519 98.1251C63.3202 97.958 63.3361 97.7847 63.3977 97.6271C63.4593 97.4696 63.5638 97.3349 63.6979 97.2401C63.8321 97.1453 63.9898 97.0947 64.1512 97.0947C64.3668 97.0947 64.5737 97.1849 64.7264 97.3456C64.8792 97.5062 64.9655 97.7243 64.9665 97.952Z" fill="#FF0000"/>
<path d="M68.2843 97.952C68.285 98.1226 68.2377 98.2896 68.1484 98.4318C68.0591 98.574 67.9318 98.6849 67.7827 98.7505C67.6336 98.8162 67.4694 98.8335 67.3109 98.8004C67.1525 98.7673 67.0069 98.6853 66.8926 98.5646C66.7784 98.444 66.7007 98.2902 66.6694 98.1228C66.638 97.9555 66.6545 97.782 66.7166 97.6245C66.7788 97.467 66.8838 97.3326 67.0184 97.2383C67.153 97.1439 67.3111 97.094 67.4727 97.0947C67.6879 97.0947 67.8944 97.1851 68.0466 97.3458C68.1988 97.5066 68.2843 97.7246 68.2843 97.952Z" fill="#F2F708"/>
<path d="M71.6059 97.952C71.6066 98.1225 71.5594 98.2893 71.4702 98.4314C71.3811 98.5735 71.254 98.6844 71.1051 98.7502C70.9562 98.8159 70.7922 98.8335 70.6338 98.8007C70.4754 98.7679 70.3298 98.6862 70.2154 98.566C70.1011 98.4457 70.0231 98.2923 69.9913 98.1251C69.9596 97.958 69.9755 97.7847 70.0371 97.6271C70.0987 97.4696 70.2032 97.3349 70.3373 97.2401C70.4715 97.1453 70.6292 97.0947 70.7906 97.0947C70.8975 97.0942 71.0035 97.116 71.1023 97.1589C71.2012 97.2018 71.2911 97.2648 71.3669 97.3445C71.4426 97.4241 71.5027 97.5188 71.5438 97.6231C71.5848 97.7273 71.6059 97.8391 71.6059 97.952Z" fill="#14ADF5"/>
<path d="M157.804 101.712C157.804 101.768 136.088 101.81 109.317 101.81C82.5457 101.81 60.8262 101.768 60.8262 101.712C60.8262 101.656 82.5422 101.614 109.317 101.614C136.092 101.614 157.804 101.659 157.804 101.712Z" fill="#455A64"/>
<path d="M165.953 159.699H54.3149V160.075H165.953V159.699Z" fill="#455A64"/>
<path d="M89.9861 131.562H68.7756V133.063H89.9861V131.562Z" fill="#FF5C00"/>
<path d="M117.384 110.755H96.1734V112.255H117.384V110.755Z" fill="#FF5C00"/>
<path d="M148.933 116.338C148.933 116.391 137.121 116.436 122.553 116.436C107.985 116.436 96.1734 116.391 96.1734 116.338C96.1734 116.286 107.982 116.237 122.553 116.237C137.124 116.237 148.933 116.282 148.933 116.338Z" fill="#455A64"/>
<path d="M148.933 119.609C148.933 119.662 137.121 119.707 122.553 119.707C107.985 119.707 96.1734 119.662 96.1734 119.609C96.1734 119.557 107.982 119.512 122.553 119.512C137.124 119.512 148.933 119.568 148.933 119.609Z" fill="#455A64"/>
<path d="M148.933 122.881C148.933 122.937 137.121 122.979 122.553 122.979C107.985 122.979 96.1734 122.937 96.1734 122.881C96.1734 122.825 107.982 122.783 122.553 122.783C137.124 122.783 148.933 122.828 148.933 122.881Z" fill="#455A64"/>
<path d="M148.933 126.156C148.933 126.208 137.121 126.253 122.553 126.253C107.985 126.253 96.1734 126.208 96.1734 126.156C96.1734 126.103 107.982 126.054 122.553 126.054C137.124 126.054 148.933 126.099 148.933 126.156Z" fill="#455A64"/>
<path d="M148.933 129.427C148.933 129.48 137.121 129.525 122.553 129.525C107.985 129.525 96.1734 129.48 96.1734 129.427C96.1734 129.374 107.982 129.329 122.553 129.329C137.124 129.329 148.933 129.37 148.933 129.427Z" fill="#455A64"/>
<path d="M116.768 132.698C116.768 132.751 112.158 132.796 106.472 132.796C100.787 132.796 96.1734 132.751 96.1734 132.698C96.1734 132.645 100.801 132.6 106.472 132.6C112.144 132.6 116.768 132.645 116.768 132.698Z" fill="#455A64"/>
<path d="M148.545 139.049C148.545 139.105 140.78 139.147 131.207 139.147C121.635 139.147 113.87 139.105 113.87 139.049C113.87 138.993 121.631 138.951 131.207 138.951C140.784 138.951 148.545 138.996 148.545 139.049Z" fill="#455A64"/>
<path d="M148.545 142.523C148.545 142.576 140.78 142.621 131.207 142.621C121.635 142.621 113.87 142.576 113.87 142.523C113.87 142.47 121.631 142.425 131.207 142.425C140.784 142.425 148.545 142.47 148.545 142.523Z" fill="#455A64"/>
<path d="M148.545 145.997C148.545 146.05 140.78 146.095 131.207 146.095C121.635 146.095 113.87 146.05 113.87 145.997C113.87 145.945 121.631 145.899 131.207 145.899C140.784 145.899 148.545 145.941 148.545 145.997Z" fill="#455A64"/>
<path d="M148.545 149.471C148.545 149.524 140.78 149.569 131.207 149.569C121.635 149.569 113.87 149.524 113.87 149.471C113.87 149.419 121.631 149.374 131.207 149.374C140.784 149.374 148.545 149.415 148.545 149.471Z" fill="#455A64"/>
<path d="M90.0395 138.718C90.0395 138.771 85.4115 138.816 79.7155 138.816C74.0195 138.816 69.3915 138.771 69.3915 138.718C69.3915 138.665 74.0195 138.62 79.7155 138.62C85.4115 138.62 90.0395 138.661 90.0395 138.718Z" fill="#455A64"/>
<path d="M90.0395 141.444C90.0395 141.5 85.4115 141.542 79.7155 141.542C74.0195 141.542 69.3915 141.5 69.3915 141.444C69.3915 141.388 74.0195 141.346 79.7155 141.346C85.4115 141.346 90.0395 141.376 90.0395 141.444Z" fill="#455A64"/>
<path d="M90.0395 144.173C90.0395 144.226 85.4115 144.271 79.7155 144.271C74.0195 144.271 69.3915 144.226 69.3915 144.173C69.3915 144.121 74.0195 144.076 79.7155 144.076C85.4115 144.076 90.0395 144.121 90.0395 144.173Z" fill="#455A64"/>
<path d="M90.0395 146.9C90.0395 146.956 85.4115 146.997 79.7155 146.997C74.0195 146.997 69.3915 146.956 69.3915 146.9C69.3915 146.843 74.0195 146.802 79.7155 146.802C85.4115 146.802 90.0395 146.847 90.0395 146.9Z" fill="#455A64"/>
<path d="M90.0395 149.648C90.0395 149.701 85.4115 149.746 79.7155 149.746C74.0195 149.746 69.3915 149.701 69.3915 149.648C69.3915 149.595 74.0195 149.55 79.7155 149.55C85.4115 149.55 90.0395 149.577 90.0395 149.648Z" fill="#455A64"/>
<path d="M90.0395 105.859H68.7756V127.588H90.0395V105.859Z" fill="#E0E0E0"/>
<path d="M70.424 125.727L76.3086 114.545L81.1182 121.693L84.0445 117.899L88.3913 125.727H70.424Z" fill="#7000FF"/>
<path d="M83.1687 112.372C83.1687 112.691 83.0789 113.004 82.9107 113.27C82.7425 113.536 82.5034 113.743 82.2237 113.865C81.944 113.988 81.6362 114.02 81.3393 113.957C81.0423 113.895 80.7696 113.741 80.5555 113.515C80.3414 113.289 80.1956 113.001 80.1365 112.687C80.0775 112.373 80.1078 112.048 80.2236 111.753C80.3395 111.458 80.5357 111.205 80.7874 111.027C81.0392 110.85 81.3352 110.755 81.6379 110.755C82.0439 110.755 82.4333 110.925 82.7204 111.228C83.0074 111.532 83.1687 111.943 83.1687 112.372Z" fill="#7000FF"/>
<path d="M88.3913 125.787C88.3897 125.758 88.3897 125.729 88.3913 125.701C88.3913 125.633 88.3913 125.55 88.3913 125.445C88.3913 125.216 88.3913 124.888 88.3913 124.467C88.3913 123.606 88.3913 122.362 88.3663 120.779C88.3663 117.605 88.3414 113.086 88.3236 107.656L88.4091 107.75H70.4453C70.4204 107.773 70.634 107.547 70.545 107.645V112.533C70.545 114.127 70.545 115.691 70.545 117.214C70.545 120.256 70.545 123.132 70.545 125.78L70.456 125.689L83.4464 125.734L87.1132 125.761H88.0851H88.4233C88.4233 125.761 88.3984 125.761 88.345 125.761H88.1029H87.1488L83.5034 125.787L70.456 125.832H70.3705V125.738C70.3705 123.106 70.3705 120.215 70.3705 117.173C70.3705 115.65 70.3705 114.086 70.3705 112.492V107.604L70.4738 107.495H88.4375H88.5265V107.585C88.5265 113.037 88.4909 117.575 88.4803 120.764C88.4803 122.339 88.4803 123.576 88.4589 124.433C88.4589 124.847 88.4589 125.167 88.4589 125.396C88.4589 125.498 88.4589 125.576 88.4589 125.637C88.4589 125.697 88.3948 125.791 88.3913 125.787Z" fill="#455A64"/>
<path d="M111.207 137.391H96.1592V152.769H111.207V137.391Z" fill="#E0E0E0"/>
<path d="M97.3268 151.453L101.488 143.542L104.895 148.599L106.964 145.911L110.043 151.453H97.3268Z" fill="#7000FF"/>
<path d="M106.344 142.001C106.344 142.224 106.282 142.442 106.164 142.627C106.047 142.813 105.88 142.957 105.685 143.043C105.49 143.128 105.275 143.15 105.068 143.107C104.861 143.063 104.67 142.956 104.521 142.798C104.372 142.64 104.27 142.439 104.229 142.221C104.188 142.002 104.209 141.775 104.29 141.569C104.37 141.363 104.507 141.187 104.683 141.063C104.859 140.939 105.065 140.873 105.276 140.873C105.56 140.873 105.831 140.991 106.031 141.203C106.232 141.414 106.344 141.701 106.344 142.001Z" fill="#7000FF"/>
<path d="M110.043 151.498C110.042 151.477 110.042 151.456 110.043 151.434C110.043 151.389 110.043 151.329 110.043 151.254C110.043 151.092 110.043 150.878 110.043 150.562C110.043 149.953 110.043 149.058 110.025 147.949C110.025 145.693 110.025 142.504 109.997 138.665L110.057 138.729H97.3411C97.3411 138.729 97.4764 138.586 97.4123 138.658V145.426C97.4123 147.58 97.4123 149.614 97.4123 151.491L97.3482 151.423L106.544 151.457L109.135 151.476H109.822H109.146H106.569L97.334 151.509H97.2734V151.446C97.2734 149.566 97.2734 147.535 97.2734 145.381C97.2734 144.305 97.2734 143.196 97.2734 142.068V138.624C97.2093 138.688 97.3589 138.526 97.3446 138.545H110.061H110.121V138.609C110.121 142.467 110.097 145.678 110.089 147.937C110.089 149.065 110.089 149.927 110.089 150.532C110.089 150.825 110.089 151.051 110.089 151.212C110.089 151.284 110.089 151.34 110.089 151.385C110.081 151.426 110.065 151.464 110.043 151.498Z" fill="#455A64"/>
<path d="M236.865 159.8L233.305 159.353L232.468 166.399L237.676 167.11L237.755 166.677C238.089 164.745 239.317 156.833 239.097 155.484C238.851 153.98 236.865 159.8 236.865 159.8Z" fill="#7000FF"/>
<path d="M238.787 154.98C238.851 154.98 238.605 157.635 238.239 160.887C237.872 164.139 237.527 166.771 237.463 166.764C237.399 166.756 237.648 164.132 238.011 160.857C238.374 157.582 238.723 154.972 238.787 154.98Z" fill="#263238"/>
<path d="M237.605 159.469C237.57 159.522 237.384 159.447 237.214 159.274C237.043 159.101 236.971 158.898 237.021 158.864C237.071 158.83 237.221 158.939 237.377 159.101C237.534 159.263 237.644 159.424 237.605 159.469Z" fill="#263238"/>
<path d="M237.89 159.048C237.861 159.108 237.651 159.048 237.445 158.883C237.238 158.717 237.124 158.507 237.171 158.469C237.217 158.432 237.391 158.533 237.584 158.687C237.776 158.842 237.922 158.988 237.89 159.048Z" fill="#263238"/>
<path d="M237.68 164.636C237.68 164.666 237.591 164.76 237.413 164.895C237.187 165.058 236.976 165.243 236.783 165.448C236.601 165.651 236.468 165.899 236.398 166.17C236.348 166.38 236.363 166.519 236.327 166.527C236.291 166.534 236.227 166.395 236.238 166.151C236.263 165.83 236.388 165.527 236.594 165.29C236.798 165.065 237.039 164.883 237.306 164.752C237.53 164.647 237.662 164.605 237.68 164.636Z" fill="#263238"/>
<path d="M236.939 159.364C236.996 159.338 237.11 159.477 237.153 159.684C237.196 159.89 237.153 160.06 237.089 160.06C237.025 160.06 236.968 159.909 236.929 159.725C236.889 159.541 236.879 159.39 236.939 159.364Z" fill="#263238"/>
<path d="M236.583 159.424C236.644 159.424 236.676 159.62 236.655 159.86C236.633 160.101 236.558 160.282 236.498 160.267C236.437 160.252 236.402 160.06 236.427 159.834C236.452 159.609 236.519 159.424 236.583 159.424Z" fill="#263238"/>
<path d="M234.693 166.959L214.96 164.846L174.041 165.812L184.921 156.548L212.229 155.164L236.106 158.638L234.693 166.959Z" fill="#263238"/>
<path d="M201.339 161.172C201.339 161.229 197.498 161.27 192.76 161.27C188.021 161.27 184.184 161.229 184.184 161.172C184.184 161.116 188.021 161.075 192.76 161.075C197.498 161.075 201.339 161.12 201.339 161.172Z" fill="#455A64"/>
<path d="M199.431 155.811L200.834 165.132H203.525L201.478 155.709L199.431 155.811Z" fill="black"/>
<path d="M209.848 165.256L209.449 161.496L202.76 162.248L203.276 167.753H203.692C205.551 167.655 213.123 167.121 214.316 166.587C215.661 165.974 209.848 165.256 209.848 165.256Z" fill="#7000FF"/>
<path d="M214.454 166.192C214.454 166.26 211.962 166.609 208.883 166.974C205.804 167.339 203.297 167.58 203.29 167.512C203.283 167.444 205.782 167.098 208.858 166.734C211.934 166.369 214.447 166.139 214.454 166.192Z" fill="#263238"/>
<path d="M210.04 166.011C209.979 165.985 210.008 165.778 210.129 165.564C210.25 165.35 210.417 165.229 210.464 165.271C210.51 165.312 210.439 165.493 210.328 165.688C210.218 165.884 210.104 166.038 210.04 166.011Z" fill="#263238"/>
<path d="M210.499 166.192C210.439 166.192 210.446 165.948 210.553 165.696C210.659 165.444 210.816 165.286 210.869 165.32C210.923 165.354 210.869 165.557 210.763 165.79C210.656 166.023 210.56 166.226 210.499 166.192Z" fill="#263238"/>
<path d="M205.298 167.26C205.277 167.283 205.163 167.196 204.999 167.046C204.798 166.851 204.58 166.676 204.348 166.523C204.118 166.382 203.859 166.303 203.593 166.294C203.39 166.294 203.262 166.335 203.237 166.294C203.212 166.252 203.333 166.162 203.568 166.117C203.874 166.071 204.185 166.138 204.451 166.305C204.704 166.466 204.926 166.675 205.106 166.922C205.255 167.113 205.323 167.238 205.298 167.26Z" fill="#263238"/>
<path d="M209.99 165.301C210.029 165.354 209.926 165.5 209.744 165.594C209.563 165.688 209.388 165.681 209.388 165.617C209.388 165.553 209.499 165.459 209.659 165.376C209.819 165.294 209.955 165.245 209.99 165.301Z" fill="#263238"/>
<path d="M209.848 164.947C209.848 165.015 209.688 165.09 209.463 165.12C209.239 165.15 209.054 165.12 209.05 165.053C209.047 164.985 209.221 164.91 209.435 164.88C209.648 164.85 209.834 164.884 209.848 164.947Z" fill="#263238"/>
<path d="M170.709 122.245L176.405 122.136C176.483 121.44 176.594 118.73 176.594 118.73C176.594 118.73 178.979 118.493 179.153 116.004C179.328 113.514 179.253 107.754 179.253 107.754C177.946 107.057 176.486 106.741 175.025 106.839C173.564 106.937 172.154 107.445 170.941 108.311L170.585 108.574L170.709 122.245Z" fill="#B78876"/>
<path d="M178.466 112.007C178.404 111.937 178.37 111.845 178.37 111.749C178.37 111.653 178.404 111.561 178.466 111.491C178.515 111.437 178.579 111.398 178.648 111.382C178.718 111.366 178.791 111.372 178.857 111.399C178.923 111.427 178.98 111.475 179.02 111.538C179.06 111.6 179.082 111.674 179.082 111.749C179.082 111.824 179.06 111.898 179.02 111.96C178.98 112.023 178.923 112.071 178.857 112.099C178.791 112.126 178.718 112.132 178.648 112.116C178.579 112.1 178.515 112.062 178.466 112.007Z" fill="#263238"/>
<path d="M179.068 111.473C179.029 111.514 178.808 111.311 178.484 111.289C178.16 111.266 177.911 111.428 177.879 111.383C177.847 111.338 177.904 111.285 178.011 111.21C178.156 111.113 178.327 111.068 178.498 111.082C178.669 111.093 178.832 111.163 178.961 111.281C179.068 111.375 179.093 111.454 179.068 111.473Z" fill="#263238"/>
<path d="M175.309 111.529C175.36 111.593 175.389 111.673 175.392 111.756C175.396 111.839 175.373 111.921 175.327 111.989C175.282 112.057 175.216 112.108 175.14 112.132C175.065 112.156 174.984 112.153 174.91 112.123C174.859 112.103 174.814 112.07 174.776 112.028C174.739 111.987 174.712 111.936 174.696 111.881C174.68 111.826 174.677 111.768 174.685 111.712C174.694 111.655 174.715 111.601 174.746 111.555C174.778 111.508 174.819 111.469 174.867 111.442C174.914 111.414 174.967 111.399 175.022 111.396C175.076 111.394 175.13 111.405 175.18 111.428C175.229 111.451 175.274 111.485 175.309 111.529Z" fill="#263238"/>
<path d="M175.508 111.544C175.469 111.586 175.248 111.383 174.921 111.36C174.593 111.338 174.351 111.499 174.315 111.454C174.28 111.409 174.34 111.356 174.451 111.281C174.596 111.185 174.767 111.14 174.938 111.153C175.109 111.167 175.271 111.238 175.401 111.356C175.508 111.447 175.54 111.529 175.508 111.544Z" fill="#263238"/>
<path d="M176.661 114.466C176.832 114.407 177.012 114.379 177.192 114.383C177.277 114.383 177.348 114.361 177.356 114.316C177.364 114.225 177.348 114.134 177.309 114.052L177.092 113.338C176.883 112.729 176.733 112.099 176.644 111.458C176.911 112.039 177.121 112.648 177.27 113.274C177.341 113.522 177.405 113.759 177.473 113.992C177.522 114.111 177.53 114.244 177.498 114.368C177.483 114.402 177.462 114.432 177.434 114.455C177.407 114.478 177.375 114.495 177.341 114.504C177.293 114.511 177.244 114.511 177.195 114.504C177.017 114.522 176.836 114.51 176.661 114.466Z" fill="#263238"/>
<path d="M175.583 114.778C175.255 114.541 176.483 115.361 177.149 115.368C177.028 115.542 176.855 115.667 176.658 115.723C176.461 115.78 176.251 115.765 176.063 115.68C175.373 115.361 175.583 114.778 175.583 114.778Z" fill="white"/>
<path d="M176.608 118.692C175.516 118.641 174.462 118.249 173.582 117.564C173.582 117.564 174.205 119.406 176.576 119.335L176.608 118.692Z" fill="#A36957"/>
<path d="M179.424 106.856C179.559 106.851 179.692 106.813 179.811 106.746C179.931 106.679 180.034 106.583 180.114 106.467C180.193 106.351 180.246 106.218 180.268 106.077C180.291 105.936 180.283 105.791 180.244 105.654C180.206 105.516 180.138 105.39 180.046 105.285C179.955 105.18 179.841 105.098 179.715 105.047C179.588 104.995 179.453 104.975 179.318 104.987C179.183 105 179.052 105.044 178.936 105.118C179.219 104.873 179.45 104.566 179.613 104.22C179.691 104.046 179.717 103.85 179.687 103.66C179.657 103.47 179.573 103.294 179.445 103.156C179.297 103.048 179.123 102.985 178.943 102.973C178.763 102.961 178.584 103.001 178.424 103.088C177.922 103.317 177.526 103.765 177 103.953C176.473 104.141 175.91 104.047 175.358 104.073C174.744 104.085 174.148 104.303 173.657 104.694C173.415 104.891 173.221 105.146 173.089 105.437C172.957 105.728 172.892 106.048 172.898 106.371C172.126 106.273 171.272 106.261 170.663 106.769C170.418 106.999 170.224 107.284 170.096 107.602C169.967 107.921 169.907 108.265 169.919 108.611C169.978 109.302 170.134 109.98 170.382 110.623C170.425 110.811 170.505 110.988 170.617 111.142L170.905 112.932L171.955 112.909L171.887 109.187C171.887 109.187 171.781 107.615 173.062 107.754C174.344 107.893 176.078 109.416 178.566 109.029C178.973 109.006 179.37 108.887 179.727 108.679C179.9 108.564 180.04 108.402 180.134 108.211C180.228 108.019 180.272 107.804 180.261 107.589C180.239 107.376 180.139 107.18 179.983 107.043C179.827 106.906 179.626 106.839 179.424 106.856Z" fill="#263238"/>
<path d="M171.037 110.785C170.983 110.766 169.282 110.533 169.442 112.665C169.602 114.797 171.578 113.913 171.578 113.853C171.578 113.793 171.037 110.785 171.037 110.785Z" fill="#B78876"/>
<path d="M170.908 113.15C170.908 113.15 170.873 113.176 170.816 113.21C170.736 113.254 170.643 113.265 170.556 113.24C170.42 113.164 170.306 113.051 170.224 112.913C170.143 112.775 170.098 112.616 170.093 112.454C170.073 112.273 170.093 112.089 170.15 111.916C170.164 111.848 170.193 111.784 170.235 111.73C170.277 111.677 170.331 111.635 170.392 111.608C170.432 111.594 170.475 111.594 170.514 111.61C170.553 111.626 170.586 111.656 170.606 111.694C170.638 111.751 170.627 111.792 170.638 111.796C170.649 111.8 170.681 111.758 170.656 111.672C170.642 111.619 170.61 111.574 170.567 111.544C170.538 111.524 170.506 111.511 170.472 111.504C170.439 111.498 170.404 111.499 170.371 111.506C170.286 111.531 170.208 111.578 170.145 111.644C170.083 111.71 170.038 111.792 170.015 111.882C169.942 112.073 169.916 112.28 169.94 112.484C169.944 112.673 170.001 112.857 170.103 113.012C170.206 113.168 170.35 113.287 170.517 113.356C170.572 113.369 170.629 113.368 170.684 113.353C170.739 113.339 170.79 113.312 170.834 113.274C170.908 113.198 170.916 113.153 170.908 113.15Z" fill="#A36957"/>
<path d="M166.088 159.424C167.156 161.105 173.632 171.4 181.364 163.914C191.215 154.386 199.004 146.039 199.004 146.039L201.93 164.895L211.101 164.369C211.101 164.369 207.541 136.293 205.27 133.74C202.746 130.89 200.424 131.13 180.602 147.652L166.088 159.424Z" fill="#455A64"/>
<path d="M198.89 127.449L207.455 120.847L207.876 121.557L199.367 128.239L198.89 127.449Z" fill="#263238"/>
<path d="M201.008 127.246C201.008 127.246 202.155 124.088 202.432 123.415C202.71 122.742 203.126 121.569 203.29 121.535C203.454 121.501 204.052 121.61 203.29 123.618C202.528 125.626 204.216 124.4 204.216 124.4L205.864 123.152C205.864 123.152 207.167 127.265 206.427 128.506C205.844 129.432 205.191 130.306 204.472 131.119L201.008 127.246Z" fill="#B78876"/>
<path d="M201.104 126.878C200.934 126.468 190.04 136.627 187.872 136.973L181.521 128.239C181.521 128.239 180.204 126.028 177.373 122.245C175.544 119.805 170.503 120.313 169.185 123.287C166.936 128.34 166.907 133.958 165.707 144.888L165.184 152.28C165.071 153.853 165.094 155.434 165.252 157.003C165.444 158.834 165.835 160.763 166.64 160.488L181.168 147.806L181.635 142.046C184.689 145.317 185.64 146.001 187.228 145.738C191.225 145.084 205.22 131.792 205.22 131.792C205.22 131.792 201.272 127.291 201.104 126.878Z" fill="#7000FF"/>
<path d="M203.344 133.638C203.06 133.458 202.798 133.242 202.564 132.995C201.969 132.434 201.411 131.829 200.894 131.187C200.375 130.546 199.899 129.868 199.47 129.156C199.28 128.869 199.118 128.562 198.99 128.239C199.205 128.502 199.402 128.782 199.577 129.077C199.933 129.6 200.432 130.314 201.033 131.059C201.635 131.803 202.219 132.442 202.653 132.894C202.899 133.124 203.13 133.373 203.344 133.638Z" fill="#263238"/>
<path d="M187.256 140.436C187.262 139.847 187.329 139.261 187.455 138.688C187.525 138.103 187.654 137.529 187.84 136.973C187.834 137.562 187.767 138.148 187.64 138.722C187.571 139.306 187.442 139.881 187.256 140.436Z" fill="#263238"/>
<path d="M188.644 140.075C188.424 139.597 188.262 139.092 188.16 138.571C188.003 138.067 187.901 137.546 187.858 137.018C188.078 137.496 188.24 138.001 188.342 138.522C188.499 139.026 188.6 139.547 188.644 140.075Z" fill="#263238"/>
<path d="M172.916 129.773C173.047 129.925 173.166 130.087 173.272 130.258L174.219 131.619C175.02 132.766 176.138 134.345 177.388 136.071L180.609 140.485L181.581 141.828C181.713 141.986 181.832 142.156 181.937 142.335C181.795 142.192 181.662 142.037 181.542 141.873C181.297 141.568 180.951 141.121 180.524 140.572C179.673 139.462 178.509 137.921 177.26 136.191C176.01 134.462 174.906 132.867 174.134 131.698C173.746 131.115 173.422 130.638 173.23 130.303C173.112 130.136 173.007 129.958 172.916 129.773Z" fill="#263238"/>
<path d="M171.058 137.203C170.681 136.977 170.337 136.696 170.036 136.368C169.694 136.085 169.391 135.754 169.136 135.383C169.514 135.608 169.86 135.891 170.161 136.221C170.504 136.5 170.806 136.831 171.058 137.203Z" fill="#263238"/>
<path d="M169.812 141.44C169.441 142.252 168.961 143.004 168.388 143.673C168.545 143.251 168.759 142.856 169.025 142.5C169.238 142.109 169.503 141.752 169.812 141.44Z" fill="#263238"/>
<path d="M171.564 147.287C171.524 147.321 171.208 146.982 170.852 146.535C170.612 146.28 170.416 145.982 170.275 145.655C170.314 145.621 170.631 145.96 170.987 146.407C171.227 146.662 171.423 146.96 171.564 147.287Z" fill="#263238"/>
<path d="M168.174 151.036C167.95 151.314 167.68 151.547 167.377 151.724C167.108 151.954 166.803 152.132 166.476 152.25C166.701 151.972 166.971 151.739 167.274 151.562C167.542 151.332 167.847 151.154 168.174 151.036Z" fill="#263238"/>
<path d="M172.913 152.028C172.536 151.854 172.209 151.578 171.966 151.227C171.677 150.913 171.472 150.524 171.371 150.099C171.421 150.073 171.681 150.569 172.105 151.092C172.528 151.614 172.945 151.979 172.913 152.028Z" fill="#263238"/>
<path d="M177.331 148.486C177.071 148.846 176.764 149.165 176.419 149.434C176.113 149.75 175.765 150.018 175.387 150.231C175.647 149.871 175.954 149.552 176.298 149.283C176.604 148.966 176.952 148.698 177.331 148.486Z" fill="#263238"/>
<path d="M168.239 155.326C167.63 155.031 167.147 154.508 166.882 153.859C166.925 153.829 167.192 154.19 167.566 154.589C167.939 154.987 168.271 155.288 168.239 155.326Z" fill="#263238"/>
<path d="M178.117 145.136C177.506 145.506 176.801 145.666 176.099 145.595C176.764 145.407 177.438 145.254 178.117 145.136Z" fill="#263238"/>
<path d="M174.828 141.185C174.754 141.643 174.635 142.091 174.472 142.523C174.356 142.957 174.217 143.384 174.056 143.802H174.016C174.016 143.779 174.038 143.771 174.045 143.771C174.052 143.771 174.045 143.771 174.045 143.813H174.006C174.048 143.361 174.141 142.917 174.283 142.489C174.392 142.024 174.576 141.583 174.828 141.185Z" fill="#263238"/>
<path d="M176.22 138.676C175.834 138.506 175.474 138.275 175.152 137.992C174.799 137.762 174.481 137.477 174.209 137.146C174.588 137.32 174.941 137.55 175.259 137.83C175.618 138.06 175.942 138.345 176.22 138.676Z" fill="#263238"/>
<path d="M173.372 133.149C173.264 133.522 173.085 133.868 172.845 134.165C172.652 134.497 172.398 134.785 172.098 135.011C172.257 134.664 172.458 134.34 172.696 134.048C172.882 133.718 173.109 133.415 173.372 133.149Z" fill="#263238"/>
<path d="M169.036 132.397C168.976 131.975 168.976 131.545 169.036 131.123C169.04 130.696 169.105 130.273 169.228 129.867C169.292 130.288 169.292 130.717 169.228 131.138C169.227 131.565 169.162 131.991 169.036 132.397Z" fill="#263238"/>
<path d="M167.345 140.684C167.248 140.234 167.21 139.773 167.231 139.312C167.195 138.853 167.219 138.391 167.302 137.939C167.44 138.848 167.454 139.772 167.345 140.684Z" fill="#263238"/>
<path d="M167.11 148.633C166.948 148.389 166.84 148.11 166.793 147.817C166.688 147.541 166.639 147.245 166.651 146.948C166.922 147.466 167.079 148.042 167.11 148.633Z" fill="#263238"/>
<path d="M173.105 126.197C172.822 126.539 172.515 126.859 172.187 127.152C171.902 127.493 171.591 127.808 171.257 128.096C171.451 127.68 171.724 127.311 172.058 127.013C172.349 126.666 172.706 126.388 173.105 126.197Z" fill="#263238"/>
<path d="M170.56 125.298C170.482 124.889 170.468 124.469 170.517 124.054C170.502 123.636 170.551 123.219 170.659 122.817C170.734 123.227 170.749 123.647 170.702 124.061C170.714 124.479 170.666 124.896 170.56 125.298Z" fill="#263238"/>
<path d="M176.797 124.403C176.128 123.976 175.481 123.51 174.86 123.008C175.609 123.288 176.277 123.769 176.797 124.403Z" fill="#263238"/>
<path d="M175.44 129.096C175.342 128.665 175.302 128.222 175.323 127.78C175.285 127.339 175.307 126.894 175.391 126.46C175.53 127.33 175.547 128.217 175.44 129.092V129.096Z" fill="#263238"/>
<path d="M179.093 131.841C178.375 131.69 177.662 131.509 176.957 131.299C177.704 131.251 178.448 131.44 179.093 131.841Z" fill="#263238"/>
<path d="M179.342 129.043C179.216 128.311 179.216 127.561 179.342 126.829C179.436 127.188 179.471 127.562 179.445 127.934C179.473 128.307 179.438 128.683 179.342 129.043Z" fill="#263238"/>
<path d="M182.126 133.739C182.013 133.284 181.961 132.815 181.973 132.344C181.924 131.877 181.936 131.405 182.009 130.942C182.169 131.864 182.208 132.806 182.126 133.739Z" fill="#263238"/>
<path d="M179.986 135.326C179.947 135.364 179.659 135.086 179.342 134.71C179.025 134.334 178.797 133.995 178.837 133.958C178.876 133.92 179.164 134.198 179.481 134.578C179.798 134.958 180.026 135.292 179.986 135.326Z" fill="#263238"/>
<path d="M182.692 137.492C182.356 137.613 182.004 137.674 181.649 137.672C181.296 137.737 180.934 137.737 180.581 137.672C180.915 137.547 181.267 137.486 181.621 137.492C181.975 137.422 182.338 137.422 182.692 137.492Z" fill="#263238"/>
<path d="M184.728 138.59C184.578 137.774 184.548 136.938 184.639 136.112C184.795 136.928 184.825 137.764 184.728 138.59Z" fill="#263238"/>
<path d="M186.736 142.707C186.309 142.793 185.871 142.793 185.444 142.707C185.01 142.689 184.583 142.583 184.187 142.395C184.616 142.393 185.044 142.433 185.465 142.515C185.894 142.535 186.32 142.599 186.736 142.707Z" fill="#263238"/>
<path d="M190.189 140.809C190.043 141.662 189.774 142.488 189.392 143.256C189.434 142.826 189.538 142.405 189.702 142.008C189.804 141.584 189.968 141.179 190.189 140.809Z" fill="#263238"/>
<path d="M192.678 137.484C191.938 137.402 191.216 137.19 190.542 136.856C191.281 136.943 192.002 137.155 192.678 137.484Z" fill="#263238"/>
<path d="M194.679 138.744C194.467 139.071 194.206 139.359 193.906 139.598C193.646 139.883 193.344 140.123 193.013 140.308C193.222 139.978 193.483 139.689 193.785 139.451C194.045 139.167 194.347 138.928 194.679 138.744Z" fill="#263238"/>
<path d="M195.48 135.635C195.283 135.263 195.161 134.852 195.124 134.428C195.021 134.013 195.004 133.579 195.074 133.157C195.187 133.561 195.265 133.975 195.305 134.394C195.4 134.801 195.458 135.216 195.48 135.635Z" fill="#263238"/>
<path d="M199.289 134.92C198.557 135.693 197.816 136.456 197.067 137.21C197.633 136.278 198.393 135.495 199.289 134.92Z" fill="#263238"/>
<path d="M199.666 133.48C199.257 133.419 198.86 133.292 198.488 133.104C198.093 132.981 197.718 132.795 197.377 132.551C197.784 132.614 198.18 132.741 198.552 132.927C198.947 133.052 199.323 133.239 199.666 133.48Z" fill="#263238"/>
<path d="M199.303 131.935C199.122 131.623 198.995 131.279 198.929 130.92C198.805 130.578 198.738 130.215 198.733 129.848C198.908 130.162 199.029 130.505 199.089 130.863C199.218 131.205 199.29 131.567 199.303 131.935Z" fill="#263238"/>
<path d="M179.374 142.767C179.331 142.801 179.018 142.429 178.705 141.94C178.479 141.662 178.303 141.344 178.185 141C178.453 141.231 178.68 141.512 178.854 141.827C179.077 142.107 179.253 142.425 179.374 142.767Z" fill="#263238"/>
<path d="M206.516 161.71C206.501 161.658 206.491 161.603 206.487 161.548C206.473 161.436 206.452 161.278 206.423 161.075C206.373 160.65 206.295 160.037 206.199 159.255C205.996 157.676 205.707 155.386 205.277 152.57C204.846 149.753 204.273 146.411 203.458 142.741C203.374 142.28 203.232 141.834 203.034 141.414C202.81 140.999 202.521 140.628 202.18 140.316C201.454 139.682 200.527 139.364 199.588 139.428C199.109 139.457 198.64 139.591 198.214 139.823C197.785 140.079 197.377 140.37 196.993 140.696L194.543 142.617C191.247 145.23 188.16 147.791 185.405 150.193C182.649 152.596 180.246 154.844 178.235 156.751C177.217 157.676 176.131 158.416 175.031 158.537C174.526 158.597 174.015 158.531 173.539 158.345C173.143 158.187 172.77 157.971 172.432 157.702C171.969 157.33 171.54 156.914 171.151 156.457L170.848 156.104C170.811 156.065 170.778 156.022 170.748 155.976C170.789 156.009 170.826 156.047 170.859 156.089L171.175 156.431C171.576 156.872 172.011 157.277 172.475 157.642C172.811 157.898 173.179 158.106 173.568 158.258C174.033 158.433 174.53 158.491 175.02 158.428C176.088 158.304 177.156 157.57 178.153 156.645C180.15 154.732 182.546 152.457 185.302 150.054C188.057 147.652 191.136 145.072 194.437 142.459L196.886 140.538C197.279 140.207 197.697 139.91 198.135 139.65C198.584 139.406 199.077 139.265 199.581 139.237C200.566 139.171 201.538 139.506 202.297 140.173C202.657 140.499 202.959 140.89 203.191 141.327C203.395 141.762 203.542 142.223 203.628 142.7C204.437 146.381 204.992 149.731 205.408 152.547C205.825 155.363 206.092 157.661 206.274 159.244C206.355 160.029 206.419 160.642 206.466 161.071C206.466 161.274 206.498 161.447 206.508 161.548C206.516 161.602 206.518 161.656 206.516 161.71Z" fill="#263238"/>
<path d="M210.674 161.5C210.558 161.537 210.438 161.557 210.318 161.56C210.086 161.586 209.752 161.616 209.339 161.646C208.509 161.706 207.366 161.77 206.103 161.827L202.867 161.973L201.884 162.011C201.766 162.026 201.646 162.026 201.528 162.011C201.643 161.971 201.763 161.948 201.884 161.943C202.115 161.913 202.45 161.879 202.863 161.842C203.693 161.77 204.835 161.699 206.099 161.639L209.339 161.515L210.321 161.492C210.439 161.479 210.557 161.482 210.674 161.5Z" fill="#263238"/>
<path d="M201.549 143.098C200.739 144.492 199.683 145.708 198.438 146.681C198.402 146.636 199.15 145.903 200.019 144.914C200.887 143.925 201.496 143.064 201.549 143.098Z" fill="#263238"/>
<path d="M201.895 144.241C201.415 144.628 200.908 144.976 200.378 145.283C199.88 145.648 199.357 145.972 198.812 146.253C199.252 145.811 199.745 145.432 200.278 145.125C200.779 144.758 201.322 144.461 201.895 144.241Z" fill="#263238"/>
<path d="M231.888 162.47C231.816 162.478 231.743 162.478 231.671 162.47L231.044 162.432L228.766 162.203L221.258 161.376C218.324 161.052 215.676 160.691 213.75 160.59C212.788 160.537 212.005 160.541 211.468 160.563L210.848 160.59C210.775 160.599 210.701 160.599 210.627 160.59C210.699 160.571 210.771 160.559 210.845 160.552C210.983 160.53 211.201 160.511 211.464 160.484C212.227 160.432 212.992 160.42 213.757 160.451C215.693 160.518 218.346 160.857 221.275 161.18L228.783 162.056L231.058 162.346L231.674 162.432C231.747 162.436 231.818 162.448 231.888 162.47Z" fill="#455A64"/>
<path d="M231.436 166.674C231.386 166.674 231.546 164.794 231.792 162.459C232.037 160.124 232.286 158.263 232.336 158.27C232.386 158.278 232.226 160.15 231.98 162.481C231.735 164.812 231.485 166.677 231.436 166.674Z" fill="#455A64"/>
</svg>
