<svg width="174" height="175" viewBox="0 0 174 175" fill="none" xmlns="http://www.w3.org/2000/svg">
<g clip-path="url(#clip0_242_2590)">
<path d="M87 170.562C132.135 170.562 168.724 149.315 168.724 123.105C168.724 96.8959 132.135 75.6489 87 75.6489C41.8649 75.6489 5.2757 96.8959 5.2757 123.105C5.2757 149.315 41.8649 170.562 87 170.562Z" fill="#F5F5F5"/>
<path d="M121.515 98.2589L52.4853 138.334C51.9176 138.663 51.2737 138.837 50.6183 138.837C49.9629 138.837 49.3191 138.663 48.7513 138.334L45.1077 136.234C44.9032 136.115 44.7333 135.945 44.6152 135.739C44.497 135.534 44.4348 135.301 44.4348 135.063C44.4348 134.826 44.497 134.593 44.6152 134.387C44.7333 134.182 44.9032 134.011 45.1077 133.892L114.144 93.7999C114.711 93.4713 115.355 93.2983 116.009 93.2983C116.664 93.2983 117.307 93.4713 117.875 93.7999L121.518 95.9174C121.722 96.0369 121.89 96.208 122.008 96.4136C122.125 96.6193 122.186 96.8522 122.186 97.0892C122.185 97.3262 122.123 97.5589 122.006 97.7642C121.888 97.9695 121.718 98.1401 121.515 98.2589Z" fill="#E0E0E0"/>
<path d="M110.935 143.213C119.133 143.213 125.778 139.355 125.778 134.596C125.778 129.837 119.133 125.979 110.935 125.979C102.738 125.979 96.0933 129.837 96.0933 134.596C96.0933 139.355 102.738 143.213 110.935 143.213Z" fill="#E0E0E0"/>
<path d="M139.673 110.607C146.091 110.607 151.293 107.586 151.293 103.859C151.293 100.132 146.091 97.1108 139.673 97.1108C133.256 97.1108 128.054 100.132 128.054 103.859C128.054 107.586 133.256 110.607 139.673 110.607Z" fill="#E0E0E0"/>
<path d="M34.4242 152.744C40.8416 152.744 46.0439 149.722 46.0439 145.996C46.0439 142.269 40.8416 139.248 34.4242 139.248C28.0068 139.248 22.8044 142.269 22.8044 145.996C22.8044 149.722 28.0068 152.744 34.4242 152.744Z" fill="#E0E0E0"/>
<path d="M47.9405 56.8223L117.972 16.1628C118.776 15.6973 119.496 15.7323 120.008 16.1628L122.444 17.8498L120.756 19.9008V76.6883C120.756 78.7708 119.5 81.1858 117.948 82.0888L48.6261 122.339L48.4973 124.554L45.943 122.804C45.4349 122.419 45.1217 121.66 45.1217 120.62V62.2193C45.1321 60.1368 46.3884 57.7218 47.9405 56.8223Z" fill="#407BFF"/>
<path opacity="0.4" d="M47.9405 56.8223L117.972 16.1628C118.776 15.6973 119.496 15.7323 120.008 16.1628L122.444 17.8498L120.756 19.9008V76.6883C120.756 78.7708 119.5 81.1858 117.948 82.0888L48.6261 122.339L48.4973 124.554L45.943 122.804C45.4349 122.419 45.1217 121.66 45.1217 120.62V62.2193C45.1321 60.1368 46.3884 57.7218 47.9405 56.8223Z" fill="white"/>
<path d="M47.5161 122.258V63.8678C47.5461 62.6872 47.8704 61.5331 48.4592 60.5113L45.9571 59.0693C45.4407 60.0399 45.1582 61.1189 45.1323 62.2193V120.61C45.1323 121.66 45.4455 122.409 45.9536 122.794L48.3061 124.414C47.8189 124.022 47.5161 123.277 47.5161 122.258Z" fill="#407BFF"/>
<path opacity="0.2" d="M47.5161 122.258V63.8678C47.5461 62.6872 47.8704 61.5331 48.4592 60.5113L45.9571 59.0693C45.4407 60.0399 45.1582 61.1189 45.1323 62.2193V120.61C45.1323 121.66 45.4455 122.409 45.9536 122.794L48.3061 124.414C47.8189 124.022 47.5161 123.277 47.5161 122.258Z" fill="white"/>
<path opacity="0.3" d="M48.4695 124.53L48.5091 124.554L48.4695 124.53Z" fill="#407BFF"/>
<path d="M50.3243 124.397L120.342 83.7374C121.894 82.8379 123.15 80.4194 123.15 78.3404V19.9499C123.15 17.8709 121.894 16.9154 120.342 17.8149L50.3243 58.4709C48.7722 59.3739 47.5159 61.7889 47.5159 63.8679V122.258C47.5159 124.341 48.7722 125.3 50.3243 124.397Z" fill="#407BFF"/>
<path d="M50.3243 124.397L120.342 83.7374C121.894 82.8379 123.15 80.4194 123.15 78.3404V19.9499C123.15 17.8709 121.894 16.9154 120.342 17.8149L50.3243 58.4709C48.7722 59.3739 47.5159 61.7889 47.5159 63.8679V122.258C47.5159 124.341 48.7722 125.3 50.3243 124.397Z" fill="#407BFF"/>
<path opacity="0.7" d="M50.3243 124.397L120.342 83.7374C121.894 82.8379 123.15 80.4194 123.15 78.3404V19.9499C123.15 17.8709 121.894 16.9154 120.342 17.8149L50.3243 58.4709C48.7722 59.3739 47.5159 61.7889 47.5159 63.8679V122.258C47.5159 124.341 48.7722 125.3 50.3243 124.397Z" fill="white"/>
<path d="M50.3243 58.4709L120.342 17.8149C121.894 16.9154 123.15 17.8709 123.15 19.9499V22.8059L47.5159 66.7239V63.8679C47.5159 61.7889 48.7722 59.3739 50.3243 58.4709Z" fill="#407BFF"/>
<path opacity="0.5" d="M50.3243 58.4709L120.342 17.8149C121.894 16.9154 123.15 17.8709 123.15 19.9499V22.8059L47.5159 66.7239V63.8679C47.5159 61.7889 48.7722 59.3739 50.3243 58.4709Z" fill="white"/>
<path d="M121.452 17.7516C122.312 17.7516 122.872 18.6161 122.872 19.9496V78.3401C122.872 80.3281 121.671 82.6451 120.199 83.4991L50.1886 124.155C49.8952 124.342 49.5577 124.447 49.2107 124.46C48.3477 124.46 47.7909 123.595 47.7909 122.258V63.8676C47.7909 61.8796 48.988 59.5661 50.4635 58.7086L120.481 18.0526C120.775 17.8677 121.112 17.7639 121.459 17.7516M121.459 17.4751C121.062 17.4904 120.677 17.6112 120.342 17.8251L50.3243 58.4706C48.7722 59.3736 47.5159 61.7886 47.5159 63.8676V122.258C47.5159 123.809 48.2119 124.733 49.2107 124.733C49.6059 124.716 49.9898 124.595 50.3243 124.383L120.342 83.7231C121.894 82.8236 123.15 80.4051 123.15 78.3261V19.9496C123.15 18.4026 122.454 17.4751 121.459 17.4751Z" fill="#407BFF"/>
<path d="M53.8182 108.678C53.6572 108.679 53.5006 108.625 53.3728 108.527C53.245 108.428 53.1532 108.29 53.1115 108.134C53.0698 107.977 53.0807 107.811 53.1424 107.662C53.2042 107.512 53.3133 107.387 53.4528 107.306L74.472 95.1019C74.5552 95.0472 74.6485 95.0101 74.7464 94.9929C74.8442 94.9757 74.9446 94.9788 75.0412 95.0019C75.1379 95.025 75.2288 95.0677 75.3085 95.1274C75.3882 95.187 75.455 95.2624 75.5047 95.3489C75.5544 95.4354 75.5861 95.5311 75.5978 95.6304C75.6095 95.7296 75.601 95.8302 75.5728 95.926C75.5445 96.0218 75.4971 96.1107 75.4335 96.1875C75.3699 96.2643 75.2914 96.3272 75.2028 96.3724L54.1836 108.577C54.0735 108.644 53.947 108.679 53.8182 108.678Z" fill="#FAFAFA"/>
<path d="M53.8182 113.284C53.6569 113.286 53.4995 113.234 53.3709 113.136C53.2423 113.037 53.1498 112.899 53.1079 112.742C53.066 112.586 53.0772 112.419 53.1397 112.27C53.2021 112.12 53.3123 111.995 53.4528 111.916L83.3808 94.5276C83.464 94.4793 83.5558 94.448 83.651 94.4355C83.7462 94.4229 83.843 94.4293 83.9357 94.4543C84.0285 94.4793 84.1154 94.5225 84.1916 94.5813C84.2677 94.6401 84.3316 94.7135 84.3796 94.7971C84.4276 94.8808 84.4587 94.9731 84.4712 95.0689C84.4837 95.1646 84.4774 95.2619 84.4525 95.3552C84.4276 95.4484 84.3847 95.5359 84.3262 95.6125C84.2677 95.6891 84.1948 95.7533 84.1116 95.8016L54.1836 113.186C54.0726 113.251 53.9465 113.284 53.8182 113.284Z" fill="#FAFAFA"/>
<path d="M87.0662 98.5877C86.9048 98.5894 86.7474 98.5372 86.6188 98.4391C86.4902 98.341 86.3977 98.2027 86.3558 98.0459C86.314 97.8892 86.3251 97.7229 86.3876 97.5732C86.45 97.4235 86.5602 97.299 86.7008 97.2192L107.41 85.1932C107.493 85.1385 107.587 85.1014 107.685 85.0842C107.782 85.067 107.883 85.0701 107.979 85.0932C108.076 85.1163 108.167 85.159 108.247 85.2187C108.326 85.2783 108.393 85.3537 108.443 85.4402C108.493 85.5267 108.524 85.6225 108.536 85.7217C108.548 85.8209 108.539 85.9215 108.511 86.0173C108.483 86.1131 108.435 86.2021 108.372 86.2788C108.308 86.3556 108.23 86.4185 108.141 86.4637L87.4281 98.4897C87.3181 98.5537 87.1933 98.5875 87.0662 98.5877Z" fill="#FAFAFA"/>
<path d="M53.8182 117.894C53.6572 117.894 53.5006 117.84 53.3728 117.742C53.245 117.643 53.1532 117.505 53.1115 117.349C53.0698 117.192 53.0807 117.026 53.1424 116.877C53.2042 116.727 53.3133 116.602 53.4528 116.522L80.1688 101.01C80.3368 100.912 80.5364 100.886 80.7237 100.936C80.911 100.987 81.0706 101.11 81.1675 101.279C81.2645 101.448 81.2907 101.649 81.2404 101.837C81.1902 102.025 81.0676 102.186 80.8996 102.284L54.1836 117.796C54.0725 117.86 53.9465 117.894 53.8182 117.894Z" fill="#FAFAFA"/>
<path d="M53.8182 70.4162C53.6572 70.4164 53.5006 70.363 53.3728 70.2645C53.245 70.166 53.1532 70.0278 53.1115 69.8713C53.0698 69.7149 53.0807 69.549 53.1424 69.3994C53.2042 69.2499 53.3133 69.125 53.4528 69.0442L74.472 56.8397C74.5552 56.785 74.6485 56.7479 74.7464 56.7307C74.8442 56.7135 74.9446 56.7166 75.0412 56.7397C75.1379 56.7628 75.2288 56.8055 75.3085 56.8651C75.3882 56.9248 75.455 57.0002 75.5047 57.0867C75.5544 57.1732 75.5861 57.2689 75.5978 57.3682C75.6095 57.4674 75.601 57.568 75.5728 57.6638C75.5445 57.7595 75.4971 57.8485 75.4335 57.9253C75.3699 58.0021 75.2914 58.065 75.2028 58.1102L54.1836 70.3182C54.0725 70.3827 53.9465 70.4165 53.8182 70.4162Z" fill="#FAFAFA"/>
<path d="M53.8182 75.0259C53.6572 75.026 53.5006 74.9727 53.3728 74.8742C53.245 74.7757 53.1532 74.6375 53.1115 74.481C53.0698 74.3246 53.0807 74.1587 53.1424 74.0091C53.2042 73.8595 53.3133 73.7346 53.4528 73.6539L83.3808 56.2694C83.464 56.2147 83.5573 56.1776 83.6552 56.1604C83.753 56.1432 83.8534 56.1462 83.95 56.1694C84.0467 56.1925 84.1376 56.2352 84.2173 56.2948C84.297 56.3545 84.3638 56.4299 84.4135 56.5164C84.4633 56.6028 84.4949 56.6986 84.5066 56.7979C84.5183 56.8971 84.5098 56.9976 84.4816 57.0934C84.4533 57.1892 84.4059 57.2782 84.3423 57.355C84.2787 57.4317 84.2002 57.4946 84.1116 57.5399L54.1836 74.9244C54.0735 74.9915 53.947 75.0267 53.8182 75.0259Z" fill="#FAFAFA"/>
<path d="M87.0662 60.3295C86.9051 60.3296 86.7486 60.2763 86.6208 60.1778C86.493 60.0793 86.4011 59.9411 86.3594 59.7846C86.3178 59.6282 86.3286 59.4623 86.3904 59.3127C86.4521 59.1632 86.5612 59.0383 86.7007 58.9575L107.41 46.9315C107.493 46.8768 107.587 46.8397 107.685 46.8225C107.782 46.8053 107.883 46.8084 107.979 46.8315C108.076 46.8546 108.167 46.8973 108.247 46.9569C108.326 47.0166 108.393 47.092 108.443 47.1785C108.493 47.265 108.524 47.3607 108.536 47.46C108.548 47.5592 108.539 47.6598 108.511 47.7556C108.483 47.8513 108.435 47.9403 108.372 48.0171C108.308 48.0938 108.23 48.1568 108.141 48.202L87.4281 60.228C87.319 60.2945 87.1938 60.3296 87.0662 60.3295Z" fill="#FAFAFA"/>
<path d="M53.8182 79.6319C53.6569 79.6337 53.4995 79.5814 53.3709 79.4833C53.2423 79.3853 53.1498 79.247 53.1079 79.0902C53.066 78.9334 53.0772 78.7671 53.1397 78.6174C53.2021 78.4677 53.3123 78.3432 53.4528 78.2634L80.1688 62.7514C80.3355 62.6664 80.5282 62.6488 80.7073 62.7022C80.8865 62.7557 81.0385 62.8761 81.1321 63.0388C81.2256 63.2015 81.2537 63.3941 81.2105 63.5769C81.1672 63.7598 81.056 63.919 80.8996 64.0219L54.1836 79.5339C54.0726 79.5984 53.9465 79.6322 53.8182 79.6319Z" fill="#FAFAFA"/>
<path d="M53.4772 60.2486C53.4586 60.6148 53.3543 60.9714 53.1729 61.2895C52.9915 61.6075 52.7381 61.8781 52.4332 62.0791C51.852 62.4291 51.3892 62.1421 51.3892 61.4701C51.4078 61.1039 51.512 60.7473 51.6934 60.4292C51.8748 60.1112 52.1283 59.8406 52.4332 59.6396C53.0074 59.3001 53.4772 59.5731 53.4772 60.2486Z" fill="white"/>
<path d="M57.1834 58.0999C57.1648 58.4661 57.0605 58.8227 56.8791 59.1408C56.6977 59.4588 56.4443 59.7294 56.1394 59.9304C55.5582 60.2804 55.0954 59.9934 55.0954 59.3214C55.114 58.9552 55.2182 58.5986 55.3996 58.2805C55.581 57.9625 55.8345 57.6919 56.1394 57.4909C56.724 57.1479 57.1834 57.4209 57.1834 58.0999Z" fill="white"/>
<path d="M60.9 55.9439C60.8814 56.3101 60.7772 56.6667 60.5958 56.9848C60.4144 57.3029 60.1609 57.5734 59.856 57.7744C59.2749 58.1244 58.812 57.8374 58.812 57.1654C58.8306 56.7992 58.9349 56.4426 59.1163 56.1245C59.2977 55.8065 59.5511 55.536 59.856 55.3349C60.4198 54.9954 60.9 55.2684 60.9 55.9439Z" fill="white"/>
<path d="M68.2602 74.6374L66.7673 73.9864V58.4219L68.2602 59.0729V74.6374Z" fill="#407BFF"/>
<path opacity="0.6" d="M68.2602 74.6374L66.7673 73.9864V58.4219L68.2602 59.0729V74.6374Z" fill="black"/>
<path d="M128.983 23.7369L68.2602 59.0729L66.7673 58.4219L127.486 23.0894L128.983 23.7369Z" fill="#407BFF"/>
<path opacity="0.4" d="M128.983 23.7369L68.2602 59.0729L66.7673 58.4219L127.486 23.0894L128.983 23.7369Z" fill="black"/>
<path d="M128.983 39.3013L68.2602 74.6373V59.0728L128.983 23.7368V39.3013Z" fill="#407BFF"/>
<path opacity="0.3" d="M128.983 39.3013L68.2602 74.6373V59.0728L128.983 23.7368V39.3013Z" fill="black"/>
<path d="M99.9085 47.6453L93.5537 78.5874L90.0201 80.6299L96.3749 49.6878L99.9085 47.6453Z" fill="white"/>
<path d="M145.057 63.5881L146.261 65.0336C146.41 66.3648 146.695 67.6772 147.11 68.9501C147.806 71.2076 147.688 72.163 147.688 72.163L150.242 71.9636L149.222 63.9136C149.152 63.3754 148.968 62.8586 148.683 62.3981L148.064 61.3936L145.057 63.5881Z" fill="#945959"/>
<path d="M146.456 104.36C146.456 104.36 144.852 105.616 145.005 106.358C145.158 107.1 147.66 107.454 148.874 106.008C149.414 105.368 149.797 104.062 149.845 102.47C149.87 101.675 150.865 100.499 149.845 99.6696C148.826 98.8401 148.419 98.6441 148.164 98.7491C147.91 98.8541 146.456 104.36 146.456 104.36Z" fill="#37474F"/>
<path d="M145.259 98.2869L146.202 100.31C146.202 100.31 146.508 103.232 146.456 104.359C146.456 104.359 147.91 105.255 148.342 103.558C148.508 102.752 148.585 101.931 148.572 101.108C148.412 100.539 148.346 99.9481 148.373 99.3579C148.398 99.1755 148.387 98.9902 148.342 98.8119L147.91 97.0269L145.259 98.2869Z" fill="#945959"/>
<path d="M132.184 101.626C132.184 101.626 131.603 102.018 131.196 102.308C130.789 102.599 129.084 104.023 131.467 104.461C132.062 104.546 132.668 104.494 133.239 104.307C133.81 104.121 134.331 103.806 134.763 103.386C135.936 102.224 136.785 102.585 137.199 102.123C137.613 101.661 137.31 99.0813 136.729 99.2003L132.184 101.626Z" fill="#37474F"/>
<path d="M134.168 97.0827L134.352 98.7522C134.367 98.8945 134.344 99.0381 134.286 99.1687C134.116 99.5362 133.622 100.338 132.198 101.619C132.198 101.619 132.174 102.91 133.977 102.287C134.469 102.056 134.935 101.773 135.369 101.444C135.579 101.294 135.753 101.097 135.877 100.87C136.091 100.457 136.374 100.085 136.712 99.7672L136.9 97.0757L134.168 97.0827Z" fill="#945959"/>
<path d="M132.588 68.8169C132.588 68.8169 132.087 71.3194 132.191 76.0689C132.257 79.2609 132.323 81.6479 132.355 82.8729C132.372 83.4807 132.421 84.0871 132.504 84.6894L134.161 97.0829C134.58 97.3057 135.046 97.4222 135.52 97.4222C135.994 97.4222 136.46 97.3057 136.879 97.0829C136.879 97.0829 137.115 94.3494 137.387 92.9144C137.63 91.6439 137.951 87.9304 137.31 85.9844C137.131 85.4195 137.085 84.8201 137.178 84.2344L139.061 71.7499L132.588 68.8169Z" fill="#455A64"/>
<path d="M133.876 71.687C134.088 72.2508 134.414 72.7643 134.833 73.195C135.252 73.6257 135.756 73.9644 136.312 74.1895L137.686 80.9305L139.078 71.764L133.876 71.687Z" fill="#37474F"/>
<path d="M133.148 68.6873C133.148 68.6873 132.8 71.7288 135.323 72.9153C135.822 73.1789 136.353 73.3754 136.903 73.4998C136.903 73.4998 138.967 85.8758 139.339 86.7998C139.712 87.7238 145.255 98.2798 145.255 98.2798C145.255 98.2798 147.448 98.7418 147.907 97.0233C147.907 97.0233 147.423 94.7693 146.811 92.3088C146.296 90.2368 145.69 87.8918 144.629 86.7438C144.222 86.3168 143.998 85.7461 144.006 85.1548C144.051 83.1423 144.142 78.9178 144.159 77.7803C144.187 76.2683 144.747 71.4488 143.78 69.5028L140.794 66.7588L133.148 68.6873Z" fill="#455A64"/>
<path d="M131.078 51.7089L128.83 50.3649C128.83 50.3649 127.399 48.5484 126.241 46.9314C125.082 45.3144 124.594 44.4814 124.594 44.4814C124.959 43.9236 125.17 43.2788 125.207 42.6124C125.207 41.6394 125.155 41.1774 125.336 40.8169C125.517 40.4564 125.336 40.0749 124.852 40.2289C124.368 40.3829 124.01 41.4294 124.156 42.1119L121.456 43.6869C121.456 43.6869 121.904 44.8944 122.524 45.4579C122.524 45.4579 124.998 51.4534 125.966 52.4264C126.933 53.3994 128.624 54.7189 128.624 54.7189L131.078 51.7089Z" fill="#945959"/>
<path d="M135.696 54.467L131.078 51.709C131.078 51.709 128.941 51.8595 128.642 54.7085L132.682 57.7535L135.696 54.467Z" fill="#407BFF"/>
<path opacity="0.2" d="M135.696 54.467L131.078 51.709C131.078 51.709 128.941 51.8595 128.642 54.7085L132.682 57.7535L135.696 54.467Z" fill="black"/>
<path d="M136.59 54.4668L139.673 54.6208L141.688 54.7223L142.036 59.5138C142.036 59.5138 141.504 62.2823 141.097 63.2553C140.689 64.2283 143.362 68.2288 143.797 69.5098C143.797 69.5098 142.088 69.7408 141.222 67.7598C140.829 68.7091 140.16 69.5165 139.302 70.0757C138.444 70.6348 137.438 70.9195 136.416 70.8923C133.959 70.8923 132.588 68.8168 132.588 68.8168L133.148 65.3168C132.807 64.2464 132.619 63.1329 132.588 62.0093C132.588 62.0093 131.196 61.4948 131.513 59.4228C131.829 57.3508 135.689 54.4773 135.689 54.4773L136.59 54.4668Z" fill="#407BFF"/>
<path d="M142.889 46.7284C142.889 46.7284 144.653 45.2619 146.177 46.9314C148.37 49.3359 143.63 54.0574 147.834 54.1589C147.834 54.1589 147.35 54.7224 145.718 54.7224C144.086 54.7224 142.687 53.0249 142.965 49.9029L142.889 46.7284Z" fill="#263238"/>
<path d="M142.332 46.6511C142.332 46.6511 142.896 46.3011 143.112 46.5531C143.327 46.8051 143.613 48.7616 142.969 49.9026C142.663 50.4416 142.054 49.6996 142.054 49.6996L142.332 46.6511Z" fill="#407BFF"/>
<path d="M132.877 46.9312C132.877 46.9312 132.901 48.9577 131.603 48.3942C131.71 48.6629 131.898 48.891 132.141 49.0462C132.384 49.2014 132.67 49.2757 132.957 49.2587C133.67 49.2587 134.081 48.5587 134.081 48.0092L132.877 46.9312Z" fill="#263238"/>
<path d="M139.693 49.5677C141.562 48.4548 142.18 46.029 141.073 44.1495C139.966 42.2699 137.555 41.6485 135.686 42.7613C133.817 43.8742 133.199 46.3 134.306 48.1795C135.412 50.0591 137.824 50.6806 139.693 49.5677Z" fill="#263238"/>
<path d="M142.736 48.0092C142.736 50.1932 140.797 52.9687 138.626 52.9687C138.11 52.9692 137.598 52.8673 137.121 52.6689C136.644 52.4706 136.211 52.1796 135.845 51.8126C135.48 51.4456 135.19 51.0099 134.993 50.5302C134.795 50.0506 134.693 49.5364 134.693 49.0172C134.693 46.8332 136.454 44.3447 138.626 44.3447C140.797 44.3447 142.736 45.0867 142.736 48.0092Z" fill="#263238"/>
<path d="M136.726 45.6891C136.726 46.1482 136.592 46.5972 136.339 46.9792C136.085 47.3613 135.725 47.6593 135.304 47.8354C134.882 48.0116 134.418 48.058 133.971 47.9689C133.523 47.8798 133.111 47.659 132.788 47.3346C132.465 47.0103 132.245 46.5968 132.156 46.1466C132.067 45.6963 132.112 45.2296 132.287 44.8054C132.461 44.3811 132.757 44.0185 133.136 43.7634C133.516 43.5083 133.962 43.3721 134.419 43.3721C135.03 43.3721 135.616 43.6161 136.049 44.0505C136.481 44.4849 136.725 45.0742 136.726 45.6891Z" fill="#263238"/>
<path d="M136.59 52.339V54.467C136.59 54.467 134.613 56.4655 136.538 56.6405C138.462 56.8155 139.67 54.621 139.67 54.621V50.5645L136.59 52.339Z" fill="#945959"/>
<path d="M139.638 49.9236V50.0496C138.942 52.7761 137.164 53.3711 136.59 53.5076L136.569 49.2866H139.551L139.638 49.9236Z" fill="#703838"/>
<path d="M137.147 43.8516C136.161 43.9156 135.238 44.3646 134.577 45.1027C133.915 45.8409 133.566 46.8099 133.604 47.8031C133.569 50.8236 134.029 53.1266 135.584 53.2211C137.14 53.3156 140.616 51.9051 140.78 47.9711C140.943 44.0371 138.257 43.7501 137.147 43.8516Z" fill="#945959"/>
<path d="M135.706 49.0176L135.734 50.7886L134.697 50.4876L135.706 49.0176Z" fill="#703838"/>
<path d="M137.255 48.9681C137.255 49.0366 137.235 49.1035 137.197 49.1606C137.159 49.2177 137.106 49.2625 137.044 49.2895C136.981 49.3164 136.912 49.3243 136.845 49.3121C136.778 49.3 136.716 49.2683 136.667 49.2211C136.617 49.1739 136.583 49.1132 136.568 49.0465C136.552 48.9798 136.557 48.91 136.58 48.8459C136.604 48.7817 136.646 48.7259 136.701 48.6854C136.756 48.6449 136.821 48.6215 136.889 48.6181C136.936 48.6157 136.984 48.623 137.028 48.6396C137.072 48.6561 137.112 48.6815 137.147 48.7142C137.181 48.747 137.208 48.7864 137.227 48.83C137.245 48.8737 137.255 48.9206 137.255 48.9681Z" fill="#263238"/>
<path d="M134.888 48.7514C134.888 48.8206 134.868 48.8883 134.83 48.9458C134.791 49.0034 134.737 49.0482 134.673 49.0747C134.61 49.1012 134.54 49.1081 134.472 49.0946C134.405 49.0811 134.343 49.0478 134.294 48.9989C134.246 48.9499 134.212 48.8875 134.199 48.8197C134.186 48.7518 134.192 48.6814 134.219 48.6174C134.245 48.5535 134.29 48.4988 134.347 48.4604C134.404 48.4219 134.471 48.4014 134.54 48.4014C134.633 48.4014 134.721 48.4382 134.786 48.5039C134.852 48.5695 134.888 48.6585 134.888 48.7514Z" fill="#263238"/>
<path d="M134.081 48.0096L134.777 47.5791C134.777 47.5791 134.505 47.3026 134.237 47.4741C134.161 47.5373 134.105 47.6221 134.077 47.7176C134.049 47.8131 134.051 47.9148 134.081 48.0096Z" fill="#407BFF"/>
<path d="M135.501 51.4078C135.865 51.2312 136.219 51.0349 136.562 50.8198C136.562 50.8198 136.785 51.4008 136.315 51.6388C136.174 51.7007 136.015 51.7116 135.867 51.6695C135.718 51.6274 135.589 51.5349 135.501 51.4078Z" fill="#703838"/>
<path d="M134.081 48.0096L134.777 47.5791C134.777 47.5791 134.505 47.3026 134.237 47.4741C134.161 47.5373 134.105 47.6221 134.077 47.7176C134.049 47.8131 134.051 47.9148 134.081 48.0096Z" fill="#263238"/>
<path d="M139.023 48.804C139.023 48.804 138.953 50.0745 139.68 50.0745H141.107V47.6525C141.107 44.9365 139.057 42.098 134.697 44.3415C134.697 44.3415 134.485 47.9675 139.023 48.804Z" fill="#263238"/>
<path d="M139.572 50.1304C139.563 49.8536 139.617 49.5782 139.729 49.3254C139.784 49.1679 139.883 49.0299 140.015 48.9285C140.146 48.8271 140.305 48.7668 140.47 48.7549C141.319 48.7549 141.424 49.5634 141.41 49.8574C141.374 50.3104 141.165 50.7318 140.826 51.0323C140.487 51.3328 140.045 51.4888 139.593 51.4674L139.572 50.1304Z" fill="#945959"/>
<path d="M141.41 54.7085C141.41 54.7085 139.405 56.7175 141.963 59.8185C144.521 62.9195 145.057 63.588 145.057 63.588C145.057 63.588 147.681 63.847 148.064 61.411C148.064 61.411 144.98 57.0535 144.138 55.9545C143.296 54.8555 142.53 54.7645 141.41 54.7085Z" fill="#407BFF"/>
<path opacity="0.2" d="M141.41 54.7085C141.41 54.7085 139.405 56.7175 141.963 59.8185C144.521 62.9195 145.057 63.588 145.057 63.588C145.057 63.588 147.681 63.847 148.064 61.411C148.064 61.411 144.98 57.0535 144.138 55.9545C143.296 54.8555 142.53 54.7645 141.41 54.7085Z" fill="black"/>
<path opacity="0.3" d="M135.577 62.2576C135.577 62.2576 138.647 63.1186 139.673 60.1821C139.673 60.1996 139.144 63.8466 135.577 62.2576Z" fill="black"/>
<path d="M147.688 72.1731C147.688 72.1731 147.201 72.4601 147.086 73.4856C147.051 73.7796 146.515 74.4341 146.595 74.5986C146.675 74.7631 147.211 74.9871 147.789 74.0246C147.893 74.513 147.9 75.0175 147.81 75.5086C147.653 76.2681 147.381 77.2411 148.366 77.0276C149.351 76.8141 150.802 76.0301 150.573 74.5531C150.36 73.1286 150.242 71.9736 150.242 71.9736L147.688 72.1731Z" fill="#945959"/>
<path d="M89.7178 91.2872L88.2214 90.6397V75.0752L89.7178 75.7227V91.2872Z" fill="#407BFF"/>
<path opacity="0.6" d="M89.7178 91.2872L88.2214 90.6397V75.0752L89.7178 75.7227V91.2872Z" fill="black"/>
<path d="M124.629 55.4087L89.7178 75.7227L88.2214 75.0752L123.133 54.7612L124.629 55.4087Z" fill="#407BFF"/>
<path opacity="0.4" d="M124.629 55.4087L89.7178 75.7227L88.2214 75.0752L123.133 54.7612L124.629 55.4087Z" fill="black"/>
<path d="M124.629 70.9732L89.7178 91.2872V75.7227L124.629 55.4087V70.9732Z" fill="#407BFF"/>
<path opacity="0.3" d="M124.629 70.9732L89.7178 91.2872V75.7227L124.629 55.4087V70.9732Z" fill="black"/>
<path d="M116.576 75.1146L112.64 77.3896C112.568 76.843 112.421 76.4054 112.199 76.0769C111.978 75.7414 111.693 75.5114 111.346 75.3871C110.998 75.2627 110.597 75.2456 110.141 75.3358C109.692 75.4225 109.204 75.6182 108.677 75.9229C107.724 76.4735 106.894 77.2264 106.188 78.1817C105.481 79.13 104.932 80.2357 104.543 81.4987C104.154 82.7547 103.959 84.1197 103.959 85.5936C103.959 87.109 104.154 88.2696 104.543 89.0755C104.938 89.878 105.49 90.3379 106.197 90.4552C106.903 90.5724 107.721 90.3627 108.65 89.826C109.171 89.5247 109.653 89.1664 110.097 88.751C110.546 88.3322 110.944 87.8701 111.292 87.3648C111.639 86.8526 111.927 86.3092 112.154 85.7348C112.388 85.1569 112.55 84.5583 112.64 83.9389L116.576 81.6847C116.474 82.7192 116.219 83.8074 115.812 84.9493C115.41 86.0809 114.868 87.2004 114.185 88.3078C113.508 89.4049 112.699 90.4329 111.759 91.3917C110.824 92.3401 109.767 93.1554 108.587 93.8376C106.945 94.7864 105.478 95.2058 104.184 95.0957C102.896 94.9822 101.877 94.3288 101.128 93.1355C100.385 91.9388 100.014 90.1849 100.014 87.8738C100.014 85.5558 100.391 83.3655 101.146 81.3032C101.901 79.2408 102.926 77.41 104.22 75.811C105.514 74.205 106.969 72.9345 108.587 71.9996C109.653 71.3832 110.642 70.9849 111.552 70.8045C112.469 70.6207 113.281 70.6566 113.987 70.9123C114.694 71.161 115.27 71.6347 115.713 72.3334C116.162 73.0286 116.45 73.9556 116.576 75.1146Z" fill="white"/>
<path d="M110.579 80.577V72.0819L112.434 70.9997V79.4948L110.579 80.577ZM107.837 79.0024V76.8547L115.175 72.5743V74.722L107.837 79.0024ZM110.579 100.577V92.0819L112.434 90.9997V99.4948L110.579 100.577ZM107.837 99.0024V96.8547L115.175 92.5743V94.722L107.837 99.0024Z" fill="white"/>
<path d="M120.105 134.085C120.105 134.085 121.525 133.287 121.703 132.398C121.88 131.509 120.311 129.462 120.311 129.462C120.311 129.462 119.159 130.123 120.105 134.085Z" fill="#407BFF"/>
<path opacity="0.2" d="M120.105 134.085C120.105 134.085 121.525 133.287 121.703 132.398C121.88 131.509 120.311 129.462 120.311 129.462C120.311 129.462 119.159 130.123 120.105 134.085Z" fill="black"/>
<path d="M102.723 136.84L104.793 135.611L105.065 133.525L104.351 133.357L102.723 136.84Z" fill="#407BFF"/>
<path opacity="0.3" d="M102.723 136.84L104.793 135.611L105.065 133.525L104.351 133.357L102.723 136.84Z" fill="black"/>
<path d="M114.986 124.849L116.921 127.957L118.212 132.262C118.212 132.262 120.596 131.964 119.096 126.438L117.972 123.106L114.986 124.849Z" fill="#FFA8A7"/>
<path d="M102.312 126L102.719 130.952L101.296 134.75C101.296 134.75 102.009 136.524 104.25 132.769C105.441 130.774 105.479 130.379 105.479 130.379L105.949 126.004L102.312 126Z" fill="#FFA8A7"/>
<path d="M104.16 77.7563L103.433 79.2053C103.422 79.2264 103.416 79.2496 103.415 79.2733C103.414 79.297 103.418 79.3206 103.427 79.3426C103.436 79.3645 103.449 79.3842 103.466 79.4004C103.484 79.4166 103.504 79.4289 103.527 79.4363L104.39 79.7233L104.16 77.7563Z" fill="#F28F8F"/>
<path d="M105.169 75.3271C105.169 75.3271 104.052 75.9256 104.052 79.3556C104.052 81.2421 104.181 82.4461 105.155 82.3727C106.13 82.2991 108.934 81.9281 108.934 81.9281V75.3271H105.169Z" fill="#FFA8A7"/>
<path d="M105.169 82.3728C105.517 82.3448 106.081 82.2818 106.672 82.2118V81.8618C106.138 82.0942 105.579 82.2645 105.005 82.3693C105.06 82.3758 105.115 82.377 105.169 82.3728Z" fill="#F28F8F"/>
<path d="M106.505 81.7148V83.8708H109.436V80.8433L106.505 81.7148Z" fill="#FFA8A7"/>
<path d="M111.52 89.2782L113.424 93.2087L111.997 95.0882L112.982 98.4447L116.041 94.8152C116.307 94.5005 116.483 94.1193 116.551 93.7121C116.619 93.3048 116.576 92.8866 116.427 92.5017C115.585 90.3247 113.911 86.0407 113.458 85.2812C112.846 84.2557 112.115 83.7097 111.022 83.7447C109.93 83.7797 111.52 89.2782 111.52 89.2782Z" fill="#FFA8A7"/>
<path d="M112.439 95.7358C112.881 97.0693 113.831 98.9453 113.803 105.249C113.775 109.655 113.803 112.137 113.845 113.229C113.852 113.62 114.003 113.994 114.269 114.279C114.736 114.762 115.529 115.801 116.277 117.779C116.943 119.52 117.509 121.299 117.972 123.106C117.972 123.106 117.429 124.884 114.983 124.856L108.865 114.968C108.621 114.571 108.463 114.126 108.402 113.663L106.794 101.381V96.3518L112.439 95.7358Z" fill="#407BFF"/>
<path opacity="0.6" d="M112.439 95.7358C112.881 97.0693 113.831 98.9453 113.803 105.249C113.775 109.655 113.803 112.137 113.845 113.229C113.852 113.62 114.003 113.994 114.269 114.279C114.736 114.762 115.529 115.801 116.277 117.779C116.943 119.52 117.509 121.299 117.972 123.106C117.972 123.106 117.429 124.884 114.983 124.856L108.865 114.968C108.621 114.571 108.463 114.126 108.402 113.663L106.794 101.381V96.3518L112.439 95.7358Z" fill="black"/>
<path d="M108.089 111.223L109.787 105.098C109.787 105.098 112.174 102.648 111.325 98.4482L107.716 103.019L107.897 109.991L108.089 111.223Z" fill="#407BFF"/>
<path opacity="0.7" d="M108.089 111.223L109.787 105.098C109.787 105.098 112.174 102.648 111.325 98.4482L107.716 103.019L107.897 109.991L108.089 111.223Z" fill="black"/>
<path d="M102.482 96.0789C102.382 98.0599 101.313 110.394 101.466 113.981C101.619 117.569 102.312 126 102.312 126C102.312 126 104.619 126.959 105.945 126C105.945 126 106.505 122.675 106.871 120.05C107.094 118.692 107.048 117.303 106.735 115.962C106.608 115.47 106.608 114.953 106.735 114.461L109.338 104.412C109.338 104.412 111.586 102.827 111.586 98.4414V95.1514L102.482 96.0789Z" fill="#407BFF"/>
<path opacity="0.6" d="M102.482 96.0789C102.382 98.0599 101.313 110.394 101.466 113.981C101.619 117.569 102.312 126 102.312 126C102.312 126 104.619 126.959 105.945 126C105.945 126 106.505 122.675 106.871 120.05C107.094 118.692 107.048 117.303 106.735 115.962C106.608 115.47 106.608 114.953 106.735 114.461L109.338 104.412C109.338 104.412 111.586 102.827 111.586 98.4414V95.1514L102.482 96.0789Z" fill="black"/>
<path d="M108.736 82.3555L104.052 84.0845C104.052 84.0845 101.86 85.999 101.86 89.6565C101.86 90.682 102.844 91.6025 102.844 91.6025C102.844 91.6025 102.496 94.8155 102.469 96.079C102.469 96.079 104.863 97.7695 109.328 97.1045C110.446 96.8767 111.502 96.41 112.425 95.736C112.425 95.736 111.729 92.901 111.642 92.628C111.555 92.355 112.595 89.0405 112.595 86.4085L108.736 82.3555Z" fill="#455A64"/>
<path d="M104.598 76.0938C104.598 76.0938 104.786 77.7493 105.841 78.1938C105.841 78.1938 105.006 79.3453 106.244 79.8493V78.9603L106.763 79.9788C106.763 79.9788 105.305 85.9288 107.835 85.9288C108.275 85.9361 108.703 85.7846 109.042 85.5018C109.042 85.5018 109.432 87.0558 111.774 87.0558C114.116 87.0558 114.558 84.7493 114.558 84.7493C114.558 84.7493 112.996 85.2253 112.996 83.5873C112.996 81.9493 112.877 76.6853 112.79 75.8873C112.633 75.0474 112.208 74.2817 111.581 73.7053C110.953 73.129 110.156 72.7734 109.31 72.6918C107.483 72.4713 105.113 72.4853 103.742 74.3823C102.371 76.2793 104.327 76.8113 104.327 76.8113C104.327 76.8113 104.372 76.7448 104.598 76.0938Z" fill="#263238"/>
<path d="M106.244 78.9672C106.244 78.9672 106.168 77.5182 107.288 77.6302C108.569 77.7562 108.162 80.0802 106.592 80.0802L106.244 78.9672Z" fill="#FFA8A7"/>
<path d="M113.382 74.5504C113.086 74.085 112.684 73.6974 112.209 73.4199C112.056 73.3479 111.889 73.3075 111.72 73.3008C111.551 73.2941 111.382 73.3214 111.223 73.381C111.064 73.4406 110.919 73.5314 110.796 73.648C110.672 73.7646 110.573 73.9048 110.504 74.0604C110.372 74.3345 110.302 74.6344 110.297 74.939C110.293 75.2435 110.356 75.5452 110.48 75.8229C110.605 76.1006 110.788 76.3474 111.018 76.546C111.247 76.7446 111.517 76.8901 111.809 76.9724C111.923 77.0037 112.039 77.0259 112.157 77.0389C112.483 77.0685 112.809 76.9786 113.074 76.7856C113.34 76.5927 113.527 76.3097 113.601 75.9889C113.647 75.8235 113.671 75.653 113.674 75.4814C113.678 75.1477 113.575 74.8216 113.382 74.5504Z" fill="#407BFF"/>
<path d="M114.339 74.9003C114.338 75.2657 114.23 75.6226 114.028 75.9261C113.825 76.2295 113.538 76.4658 113.202 76.6052C112.866 76.7445 112.497 76.7806 112.141 76.7089C111.785 76.6372 111.458 76.4609 111.201 76.2023C110.944 75.9437 110.77 75.6144 110.699 75.2561C110.628 74.8977 110.665 74.5263 110.804 74.1888C110.943 73.8513 111.179 73.5629 111.481 73.36C111.783 73.1571 112.138 73.0488 112.501 73.0488C112.743 73.0488 112.982 73.0967 113.205 73.1898C113.429 73.2829 113.631 73.4194 113.802 73.5913C113.973 73.7633 114.108 73.9674 114.2 74.1921C114.292 74.4167 114.339 74.6573 114.339 74.9003Z" fill="#263238"/>
<path d="M104.052 84.0844C104.052 84.0844 105.628 84.3259 105.628 86.4434C105.628 88.5609 101.755 89.5199 99.9212 90.2024C98.8772 90.5979 97.4609 91.1509 96.4691 91.5499C96.0874 91.7025 95.6712 91.746 95.2665 91.6756C94.8617 91.6052 94.4842 91.4236 94.1757 91.1509C92.2438 89.4519 90.4942 87.5538 88.9557 85.4879C88.9557 85.4879 86.7425 84.7004 86.8086 82.5129C86.8747 80.3254 88.2006 79.7129 88.2006 79.7129V80.4409C88.2004 80.6789 88.2546 80.9138 88.359 81.1274C88.4634 81.341 88.6152 81.5276 88.8026 81.6729L89.2446 82.0229C89.2934 82.0608 89.3503 82.0866 89.4108 82.0983C89.4714 82.11 89.5338 82.1073 89.5931 82.0902C89.6523 82.0732 89.7068 82.0424 89.752 82.0003C89.7973 81.9582 89.8321 81.906 89.8536 81.8479C90.0067 81.4279 90.2747 80.8819 90.6749 80.6999C91.3535 80.3919 91.1168 81.7184 90.9463 82.3519C90.8448 82.7149 90.799 83.0914 90.8106 83.4684L95.7696 87.8749C95.7696 87.8749 101.212 84.9944 104.052 84.0844Z" fill="#FFA8A7"/>
<path d="M105.479 130.386C105.124 130.445 104.789 130.587 104.499 130.801C104.209 131.014 103.972 131.293 103.808 131.614C103.265 132.706 102.246 135.783 101.296 134.764L101.619 133.907C101.619 133.907 97.8158 134.743 98.7241 135.744C99.6324 136.745 102.482 137.19 102.723 136.847C102.963 136.504 104.25 134.047 104.25 134.047L104.964 137.326C105.068 137.417 105.2 137.467 105.338 137.467C105.475 137.467 105.608 137.417 105.712 137.326C105.712 137.326 106.641 131.033 105.479 130.386Z" fill="#407BFF"/>
<path d="M118.212 132.262C118.486 132.122 118.707 131.896 118.842 131.619C118.977 131.342 119.018 131.028 118.96 130.725C118.825 129.563 117.944 127.25 119.096 126.438C119.608 126.088 120.742 127.649 121.703 129.528C122.663 131.408 122.934 131.954 122.934 131.954C122.934 131.954 122.83 132.458 122.392 132.433L120.286 130.246C120.15 130.913 120.173 131.604 120.352 132.262C120.659 133.287 120.7 133.882 119.59 134.379C118.48 134.876 115.442 135.555 117.067 133.494C117.388 133.03 117.774 132.615 118.212 132.262Z" fill="#407BFF"/>
<path d="M36.6339 137.924L36.9054 140.749C36.9054 140.749 37.2081 141.33 38.6036 141.33C39.9991 141.33 39.6894 140.133 39.6894 140.133L39.8251 137.924H36.6339Z" fill="#FFA8A7"/>
<path d="M40.8204 109.333C40.8204 110.8 40.6847 125.115 40.6742 126.074C40.6759 126.107 40.6759 126.141 40.6742 126.175C40.6185 126.973 39.9295 136.787 39.8286 137.925C39.8286 137.925 38.1651 139.199 36.6374 137.925C36.6374 137.925 36.2268 134.463 36.0911 133.438C35.9553 132.412 35.4438 127.838 36.0911 126.329L34.4276 117.653V110.684L40.8204 109.333Z" fill="#37474F"/>
<path d="M38.9342 111.531C38.9342 111.531 38.5862 113.722 36.0876 114.919L34.9914 120.606L34.4241 117.95V111.741L38.9342 111.531Z" fill="#263238"/>
<path d="M25.9642 140.133L25.6928 142.233C25.6928 142.233 26.4201 144.14 28.6404 143.22L29.0475 141.036L25.9642 140.133Z" fill="#FFA8A7"/>
<path d="M29.0475 109.589C28.8944 111.227 28.4455 115.395 28.275 120.789C28.1044 126.182 28.1044 126.151 28.1044 126.151C27.4937 127.472 27.0776 128.877 26.869 130.319C26.6568 132.342 25.9642 140.119 25.9642 140.119C26.3508 140.533 26.8414 140.834 27.3841 140.991C27.9269 141.147 28.5016 141.153 29.0475 141.008L33.147 128.058C33.2574 127.705 33.3423 127.345 33.401 126.98L35.409 114.251C35.409 114.251 38.9098 113.775 39.6894 109.228L29.0475 109.589Z" fill="#37474F"/>
<path d="M41.9409 99.5155L45.8872 102.694V98.0805L44.4883 96.6455L41.9409 99.5155Z" fill="#F28F8F"/>
<path d="M38.092 92.3161C39.0278 92.2461 39.9558 92.5294 40.6951 93.1106C41.9166 94.0836 44.4883 96.6456 44.4883 96.6456C44.394 97.3239 44.1016 97.9588 43.6481 98.4698C43.1946 98.9807 42.6004 99.3447 41.9409 99.5156L39.4179 97.6991L38.092 92.3161Z" fill="#407BFF"/>
<path opacity="0.2" d="M38.092 92.3161C39.0278 92.2461 39.9558 92.5294 40.6951 93.1106C41.9166 94.0836 44.4883 96.6456 44.4883 96.6456C44.394 97.3239 44.1016 97.9588 43.6481 98.4698C43.1946 98.9807 42.6004 99.3447 41.9409 99.5156L39.4179 97.6991L38.092 92.3161Z" fill="white"/>
<path d="M32.9695 92.3404C32.9695 92.3404 30.3734 92.6029 29.2006 92.8584L28.7691 97.5694C28.7691 97.5694 29.6809 102.819 29.6809 103.558C29.6809 104.296 29.0475 109.588 29.0475 109.588C29.0475 109.588 30.8397 110.768 36.0562 110.768C37.7413 110.714 39.3834 110.22 40.8203 109.333V98.8644C40.8203 96.8274 40.0304 93.6144 38.092 92.3159H36.4982L32.9695 92.3404Z" fill="#407BFF"/>
<path opacity="0.2" d="M32.9695 92.3404C32.9695 92.3404 30.3734 92.6029 29.2006 92.8584L28.7691 97.5694C28.7691 97.5694 29.6809 102.819 29.6809 103.558C29.6809 104.296 29.0475 109.588 29.0475 109.588C29.0475 109.588 30.8397 110.768 36.0562 110.768C37.7413 110.714 39.3834 110.22 40.8203 109.333V98.8644C40.8203 96.8274 40.0304 93.6144 38.092 92.3159H36.4982L32.9695 92.3404Z" fill="black"/>
<path d="M47.3802 106.718L45.8873 106.071V90.5063L47.3802 91.1538V106.718Z" fill="#407BFF"/>
<path opacity="0.6" d="M47.3802 106.718L45.8873 106.071V90.5063L47.3802 91.1538V106.718Z" fill="black"/>
<path d="M82.2915 70.8399L47.3802 91.1539L45.8873 90.5064L80.7952 70.1924L82.2915 70.8399Z" fill="#407BFF"/>
<path opacity="0.4" d="M82.2915 70.8399L47.3802 91.1539L45.8873 90.5064L80.7952 70.1924L82.2915 70.8399Z" fill="black"/>
<path d="M82.2915 86.4043L47.3802 106.718V91.1538L82.2915 70.8398V86.4043Z" fill="#407BFF"/>
<path opacity="0.3" d="M82.2915 86.4043L47.3802 106.718V91.1538L82.2915 70.8398V86.4043Z" fill="black"/>
<path d="M71.0432 92.5272L67.1072 94.8022C67.0353 94.2556 66.8886 93.818 66.6669 93.4895C66.4453 93.154 66.1607 92.924 65.8132 92.7997C65.4658 92.6753 65.0644 92.6582 64.6091 92.7484C64.1598 92.8351 63.6715 93.0308 63.1443 93.3355C62.1918 93.8861 61.3621 94.639 60.6552 95.5943C59.9483 96.5426 59.4001 97.6483 59.0107 98.9113C58.6213 100.167 58.4266 101.532 58.4266 103.006C58.4266 104.522 58.6213 105.682 59.0107 106.488C59.4061 107.291 59.9573 107.75 60.6642 107.868C61.3711 107.985 62.1888 107.775 63.1174 107.239C63.6386 106.937 64.1208 106.579 64.5642 106.164C65.0135 105.745 65.4118 105.283 65.7593 104.777C66.1068 104.265 66.3943 103.722 66.622 103.147C66.8556 102.57 67.0174 101.971 67.1072 101.352L71.0432 99.0973C70.9413 100.132 70.6867 101.22 70.2793 102.362C69.878 103.493 69.3358 104.613 68.6528 105.72C67.9759 106.818 67.1671 107.845 66.2266 108.804C65.292 109.753 64.2347 110.568 63.0545 111.25C61.413 112.199 59.9453 112.618 58.6513 112.508C57.3633 112.395 56.3448 111.741 55.596 110.548C54.8531 109.351 54.4817 107.598 54.4817 105.286C54.4817 102.968 54.8591 100.778 55.614 98.7157C56.3688 96.6534 57.3932 94.8226 58.6872 93.2236C59.9812 91.6176 61.437 90.3471 63.0545 89.4122C64.1208 88.7958 65.1093 88.3975 66.0199 88.2171C66.9365 88.0333 67.7482 88.0692 68.4552 88.3249C69.1621 88.5736 69.7372 89.0473 70.1805 89.746C70.6298 90.4412 70.9173 91.3682 71.0432 92.5272ZM64.7888 129.814C64.7169 129.018 64.4084 128.546 63.8632 128.397C63.3181 128.249 62.5782 128.445 61.6437 128.985C61.0086 129.352 60.4725 129.766 60.0351 130.226C59.5978 130.68 59.2623 131.154 59.0287 131.649C58.8011 132.14 58.6872 132.614 58.6872 133.071C58.6752 133.458 58.7441 133.751 58.8939 133.948C59.0497 134.141 59.2623 134.264 59.5319 134.316C59.8015 134.361 60.113 134.357 60.4665 134.305C60.8199 134.246 61.1974 134.152 61.5987 134.024L63.2522 133.525C64.0549 133.269 64.7918 133.12 65.4628 133.078C66.1337 133.036 66.7148 133.126 67.2061 133.347C67.6973 133.568 68.0777 133.943 68.3473 134.472C68.6229 134.998 68.7637 135.702 68.7697 136.584C68.7637 137.889 68.4761 139.183 67.907 140.467C67.3439 141.74 66.5291 142.948 65.4628 144.09C64.4024 145.222 63.1234 146.221 61.6257 147.086C60.14 147.945 58.846 148.43 57.7437 148.541C56.6474 148.649 55.7907 148.366 55.1737 147.692C54.5626 147.007 54.2421 145.909 54.2121 144.397L57.9773 142.22C58.0193 142.909 58.196 143.402 58.5075 143.699C58.825 143.986 59.2474 144.098 59.7745 144.036C60.3077 143.963 60.9098 143.733 61.5808 143.345C62.2397 142.964 62.8119 142.522 63.2971 142.021C63.7884 141.515 64.1688 140.987 64.4384 140.437C64.7079 139.887 64.8427 139.356 64.8427 138.844C64.8427 138.366 64.7199 138.036 64.4743 137.853C64.2347 137.666 63.8812 137.593 63.4139 137.635C62.9526 137.674 62.3865 137.793 61.7156 137.994L59.7116 138.571C58.16 139.032 56.9349 139.059 56.0363 138.651C55.1377 138.243 54.6914 137.252 54.6974 135.678C54.6914 134.394 54.9879 133.098 55.587 131.79C56.1921 130.479 57.0218 129.248 58.0762 128.099C59.1305 126.95 60.3287 125.988 61.6706 125.212C63.0365 124.423 64.2287 124.003 65.2471 123.954C66.2715 123.902 67.0683 124.192 67.6374 124.825C68.2065 125.458 68.5001 126.402 68.5181 127.658L64.7888 129.814ZM64.7888 164.814C64.7169 164.018 64.4084 163.546 63.8632 163.397C63.3181 163.249 62.5782 163.445 61.6437 163.985C61.0086 164.352 60.4725 164.766 60.0351 165.226C59.5978 165.68 59.2623 166.154 59.0287 166.649C58.8011 167.14 58.6872 167.614 58.6872 168.071C58.6752 168.458 58.7441 168.751 58.8939 168.948C59.0497 169.141 59.2623 169.264 59.5319 169.316C59.8015 169.361 60.113 169.357 60.4665 169.305C60.8199 169.246 61.1974 169.152 61.5987 169.024L63.2522 168.525C64.0549 168.269 64.7918 168.12 65.4628 168.078C66.1337 168.036 66.7148 168.126 67.2061 168.347C67.6973 168.568 68.0777 168.943 68.3473 169.472C68.6229 169.998 68.7637 170.702 68.7697 171.584C68.7637 172.889 68.4761 174.183 67.907 175.467C67.3439 176.74 66.5291 177.948 65.4628 179.09C64.4024 180.222 63.1234 181.221 61.6257 182.086C60.14 182.945 58.846 183.43 57.7437 183.541C56.6474 183.649 55.7907 183.366 55.1737 182.692C54.5626 182.007 54.2421 180.909 54.2121 179.397L57.9773 177.22C58.0193 177.909 58.196 178.402 58.5075 178.699C58.825 178.986 59.2474 179.098 59.7745 179.036C60.3077 178.963 60.9098 178.733 61.5808 178.345C62.2397 177.964 62.8119 177.522 63.2971 177.021C63.7884 176.515 64.1688 175.987 64.4384 175.437C64.7079 174.887 64.8427 174.356 64.8427 173.844C64.8427 173.366 64.7199 173.036 64.4743 172.853C64.2347 172.666 63.8812 172.593 63.4139 172.635C62.9526 172.674 62.3865 172.793 61.7156 172.994L59.7116 173.571C58.16 174.032 56.9349 174.059 56.0363 173.651C55.1377 173.243 54.6914 172.252 54.6974 170.678C54.6914 169.394 54.9879 168.098 55.587 166.79C56.1921 165.479 57.0218 164.248 58.0762 163.099C59.1305 161.95 60.3287 160.988 61.6706 160.212C63.0365 159.423 64.2287 159.003 65.2471 158.954C66.2715 158.902 67.0683 159.192 67.6374 159.825C68.2065 160.458 68.5001 161.402 68.5181 162.658L64.7888 164.814Z" fill="white"/>
<path d="M39.672 82.4106C39.672 82.4106 41.7008 84.2026 39.9364 88.1961L37.8728 82.7991L39.672 82.4106Z" fill="#263238"/>
<path d="M32.9695 92.3404C32.9695 92.3404 33.6655 94.2129 35.6038 94.2129C37.5422 94.2129 36.4982 92.3159 36.4982 92.3159L32.9695 92.3404Z" fill="#FFA8A7"/>
<path d="M32.9695 92.3402L36.4982 92.3157V86.8872H32.9695V92.3402Z" fill="#FFA8A7"/>
<path d="M36.4982 92.099C35.1967 91.5915 33.5437 90.7515 33.5437 89.95L33.1157 87.2515H36.4982V92.099Z" fill="#F28F8F"/>
<path d="M35.6874 81.3047C36.9332 81.3047 39.578 82.0047 39.8843 85.2807C40.1905 88.5567 39.7137 91.3427 38.2138 91.3427C35.2698 91.3427 32.444 90.9647 32.4197 86.1207C32.3988 81.8472 34.4729 81.3047 35.6874 81.3047Z" fill="#FFA8A7"/>
<path d="M32.973 88.9906L33.4497 87.4996C33.4856 87.5304 33.5295 87.5501 33.5762 87.5566C33.623 87.563 33.6705 87.5559 33.7133 87.536C33.7561 87.5161 33.7924 87.4843 33.8178 87.4444C33.8433 87.4045 33.8568 87.3581 33.8569 87.3106V84.6681C33.8569 84.6681 35.0818 84.3181 34.9531 83.2856C34.9531 83.2856 35.5795 83.8491 37.9807 83.8491C40.3819 83.8491 40.9665 81.8016 40.7264 80.6606C40.7264 80.6606 40.281 81.1226 39.0108 81.1226C37.7406 81.1226 32.4544 79.5196 32.3187 82.7326C32.3187 82.7326 31.8698 82.0746 31.1494 82.7326L32.0786 83.2996C32.0786 83.2996 30.9789 83.2646 31.1494 84.8851C31.2852 86.1661 31.8141 88.5916 32.0334 89.5611C32.0954 89.8294 32.2557 90.0644 32.4823 90.2191L32.973 90.5516V88.9906Z" fill="#263238"/>
<path d="M37.5596 86.2642V88.1962L38.6837 87.8462L37.5596 86.2642Z" fill="#F28F8F"/>
<path d="M35.5621 86.5971C35.5614 86.6756 35.584 86.7526 35.6269 86.8181C35.6699 86.8837 35.7312 86.9349 35.8032 86.9653C35.8752 86.9957 35.9546 87.0038 36.0312 86.9886C36.1078 86.9735 36.1782 86.9358 36.2334 86.8802C36.2886 86.8247 36.3261 86.7539 36.3412 86.6769C36.3562 86.5998 36.3481 86.52 36.318 86.4476C36.2878 86.3752 36.2368 86.3135 36.1716 86.2703C36.1064 86.2271 36.0299 86.2044 35.9518 86.2051C35.9007 86.2051 35.85 86.2152 35.8027 86.2349C35.7554 86.2546 35.7124 86.2835 35.6762 86.3199C35.6401 86.3563 35.6113 86.3995 35.5918 86.4471C35.5722 86.4946 35.5621 86.5456 35.5621 86.5971Z" fill="#263238"/>
<path d="M38.4888 86.3237C38.4888 86.4019 38.5118 86.4784 38.555 86.5435C38.5983 86.6085 38.6597 86.6592 38.7315 86.6891C38.8034 86.7191 38.8824 86.7269 38.9587 86.7116C39.035 86.6964 39.1051 86.6587 39.1601 86.6034C39.2151 86.5481 39.2525 86.4776 39.2677 86.4009C39.2829 86.3242 39.2751 86.2446 39.2453 86.1724C39.2156 86.1001 39.1652 86.0383 39.1005 85.9949C39.0358 85.9514 38.9598 85.9282 38.882 85.9282C38.7777 85.9282 38.6777 85.9699 38.6039 86.0441C38.5302 86.1182 38.4888 86.2188 38.4888 86.3237Z" fill="#263238"/>
<path d="M39.3588 85.5012L38.5932 85.0462C38.5932 85.0462 38.8855 84.7382 39.1778 84.9237C39.2624 84.9903 39.325 85.0812 39.3573 85.1842C39.3896 85.2873 39.3901 85.3978 39.3588 85.5012Z" fill="#263238"/>
<path d="M35.148 85.7884L35.9101 85.3299C35.9101 85.3299 35.6178 85.0219 35.3255 85.2074C35.2412 85.275 35.1792 85.3667 35.1475 85.4703C35.1159 85.574 35.116 85.6848 35.148 85.7884Z" fill="#263238"/>
<path d="M38.0886 88.9769C37.7188 89.0028 37.3511 88.9029 37.0446 88.6934C37.0446 88.6934 36.9715 89.2534 37.4378 89.3584C37.5732 89.3787 37.7115 89.352 37.8298 89.2826C37.9481 89.2133 38.0394 89.1054 38.0886 88.9769Z" fill="#F28F8F"/>
<path d="M33.2618 86.9574C33.7038 87.7309 33.589 88.6689 32.973 88.9909C32.5728 89.1974 31.4 88.7529 30.9581 87.9794C30.5161 87.2059 30.7632 86.5444 31.3652 86.1944C31.9673 85.8444 32.8164 86.1839 33.2618 86.9574Z" fill="#FFA8A7"/>
<path d="M33.4845 87.5313L32.1308 86.0543L33.1052 85.4663L33.4845 87.5313Z" fill="#253239"/>
<path d="M35.496 98.4932L37.3578 100.569C37.3578 100.569 38.8786 100.352 40.6429 100.261C42.043 100.113 43.4314 99.8689 44.798 99.5292C44.798 99.5292 45.146 98.0312 45.8908 97.4292V98.6017C45.8908 98.6017 46.8895 98.9517 47.3837 98.4547C48.2363 97.6112 48.9984 96.8342 48.9984 98.6017C48.9984 101.069 47.9544 102.07 45.1356 102.018C45.1356 102.018 38.019 105.017 36.3138 104.681C35.2698 104.482 32.4023 101.762 32.4023 101.762L35.496 98.4932Z" fill="#FFA8A7"/>
<path d="M27.84 93.5411C29.0371 92.3161 30.4047 92.8866 31.6053 94.0941C32.8059 95.3016 35.496 98.4936 35.496 98.4936C35.496 98.4936 35.2245 100.982 32.4022 101.773C32.4022 101.773 28.5951 97.7866 28.1079 97.2441C27.224 96.2501 26.7055 94.7101 27.84 93.5411Z" fill="#407BFF"/>
<path opacity="0.2" d="M27.84 93.5411C29.0371 92.3161 30.4047 92.8866 31.6053 94.0941C32.8059 95.3016 35.496 98.4936 35.496 98.4936C35.496 98.4936 35.2245 100.982 32.4022 101.773C32.4022 101.773 28.5951 97.7866 28.1079 97.2441C27.224 96.2501 26.7055 94.7101 27.84 93.5411Z" fill="white"/>
<path d="M53.0908 103.404C53.1213 103.007 53.2321 102.621 53.4164 102.269C53.6007 101.917 53.8547 101.606 54.1627 101.357C55.767 100.125 55.7008 101.357 55.7391 101.864C55.7774 102.372 54.2532 104.174 52.5828 103.698L53.0908 103.404Z" fill="#FFA8A7"/>
<path d="M25.6928 142.219C25.7784 142.41 25.8961 142.586 26.0408 142.737C26.0755 142.766 26.1175 142.786 26.1623 142.793C26.2071 142.8 26.253 142.795 26.2952 142.778C26.3373 142.761 26.3741 142.733 26.4017 142.697C26.4292 142.661 26.4464 142.618 26.4515 142.572C26.4556 142.456 26.4899 142.344 26.551 142.245C26.6121 142.147 26.6978 142.067 26.7995 142.012C27.0396 141.911 28.9571 141.876 28.9745 142.268C28.9753 142.564 28.945 142.86 28.884 143.15C28.884 143.15 29.1937 145.803 29.7818 146.853C30.3699 147.903 31.3304 149.6 29.3085 150.097C27.2867 150.594 25.7589 149.516 25.6893 148.081C25.6197 146.646 25.6545 145.631 25.5188 145.383C25.3831 145.134 24.6697 145.005 24.9411 143.692C25.2126 142.38 25.2543 141.592 25.7763 141.55L25.6928 142.219Z" fill="#455A64"/>
<path d="M27.0709 144.655C27.0415 144.656 27.0124 144.649 26.9862 144.636C26.9601 144.622 26.9377 144.602 26.9213 144.578C26.8937 144.538 26.8827 144.489 26.8905 144.442C26.8983 144.394 26.9243 144.351 26.963 144.322C27.2828 144.12 27.6477 144.002 28.0246 143.978C28.4014 143.954 28.7783 144.026 29.1206 144.186C29.1435 144.196 29.1642 144.21 29.1817 144.227C29.1991 144.245 29.2129 144.266 29.2223 144.289C29.2316 144.312 29.2364 144.337 29.2363 144.362C29.2362 144.387 29.2312 144.411 29.2216 144.434C29.212 144.457 29.198 144.478 29.1804 144.496C29.1627 144.513 29.1419 144.527 29.1189 144.537C29.096 144.546 29.0714 144.551 29.0466 144.551C29.0218 144.551 28.9973 144.546 28.9745 144.536C28.6888 144.403 28.3749 144.342 28.0605 144.36C27.7461 144.378 27.4409 144.473 27.1718 144.637C27.1406 144.653 27.1055 144.659 27.0709 144.655Z" fill="#EBEBEB"/>
<path d="M27.3702 145.95C27.341 145.95 27.3123 145.942 27.2863 145.929C27.2603 145.916 27.2378 145.896 27.2205 145.873C27.1934 145.833 27.1829 145.784 27.1913 145.736C27.1998 145.688 27.2265 145.646 27.2658 145.617C27.5851 145.414 27.9499 145.295 28.3268 145.271C28.7038 145.246 29.0808 145.317 29.4234 145.477C29.4676 145.498 29.502 145.535 29.5196 145.581C29.5371 145.626 29.5363 145.677 29.5173 145.722C29.4969 145.767 29.4598 145.801 29.4142 145.818C29.3685 145.835 29.3181 145.834 29.2737 145.813C28.9888 145.68 28.6754 145.619 28.3615 145.636C28.0475 145.654 27.7428 145.75 27.4746 145.915C27.4448 145.938 27.4079 145.951 27.3702 145.95Z" fill="#EBEBEB"/>
<path d="M27.84 147.227C27.8106 147.228 27.7816 147.221 27.7555 147.208C27.7294 147.194 27.707 147.174 27.6903 147.15C27.6631 147.11 27.6527 147.061 27.6611 147.013C27.6696 146.965 27.6963 146.923 27.7356 146.895C28.0553 146.693 28.4202 146.574 28.7971 146.55C29.174 146.527 29.5508 146.598 29.8932 146.758C29.9152 146.768 29.9352 146.781 29.9519 146.799C29.9686 146.816 29.9817 146.837 29.9904 146.859C29.9991 146.882 30.0034 146.906 30.0028 146.93C30.0022 146.954 29.9969 146.978 29.9871 147C29.9666 147.043 29.9304 147.077 29.8857 147.095C29.8411 147.112 29.7915 147.112 29.747 147.094C29.4613 146.961 29.1474 146.901 28.8331 146.919C28.5187 146.936 28.2136 147.031 27.9444 147.196C27.9135 147.216 27.8771 147.227 27.84 147.227Z" fill="#EBEBEB"/>
<path d="M36.9054 140.749C37.2656 140.992 37.6932 141.115 38.1268 141.099C38.1268 141.099 37.9215 140.29 38.5166 140.017C39.1117 139.744 40.0617 139.384 40.2566 139.709C40.394 140.081 40.4693 140.474 40.4793 140.871C40.4793 140.871 41.8957 142.163 42.9466 142.527C43.9976 142.891 45.3826 143.262 45.2504 144.238C45.1182 145.215 43.5522 146.629 41.4224 145.656C39.2926 144.683 38.9098 144.648 38.2278 144.543C37.5457 144.438 36.2755 144.494 36.3277 143.349C36.3799 142.205 36.2824 140.311 36.8497 140.157L36.9054 140.749Z" fill="#455A64"/>
<path d="M39.3449 142.499C39.3241 142.502 39.303 142.502 39.2822 142.499C39.2368 142.482 39.1997 142.448 39.1789 142.405C39.1581 142.361 39.1552 142.31 39.1709 142.264C39.3106 141.936 39.5355 141.651 39.8219 141.44C40.1084 141.229 40.446 141.099 40.7995 141.064C40.8393 141.069 40.8762 141.088 40.9044 141.117C40.9326 141.145 40.9505 141.183 40.9553 141.223C40.9601 141.263 40.9515 141.303 40.9308 141.338C40.9102 141.373 40.8787 141.399 40.8413 141.414C40.5553 141.442 40.2818 141.546 40.0489 141.715C39.8159 141.884 39.6318 142.112 39.5154 142.376C39.5023 142.412 39.4791 142.442 39.4487 142.464C39.4183 142.486 39.3822 142.498 39.3449 142.499Z" fill="#EBEBEB"/>
<path d="M40.4306 143.22H40.3715C40.3488 143.212 40.3279 143.2 40.31 143.185C40.292 143.169 40.2774 143.15 40.267 143.128C40.2567 143.106 40.2507 143.083 40.2495 143.059C40.2483 143.035 40.2519 143.011 40.2601 142.989C40.3876 142.661 40.6025 142.375 40.8812 142.162C41.16 141.949 41.4917 141.817 41.84 141.781C41.88 141.786 41.9173 141.804 41.946 141.833C41.9746 141.861 41.993 141.898 41.9982 141.939C42.0034 141.979 41.9951 142.019 41.9746 142.054C41.9542 142.089 41.9227 142.116 41.8853 142.131C41.606 142.161 41.3399 142.266 41.1146 142.435C40.8894 142.603 40.7132 142.83 40.6046 143.09C40.5929 143.128 40.5697 143.16 40.5385 143.183C40.5072 143.207 40.4695 143.219 40.4306 143.22Z" fill="#EBEBEB"/>
<path d="M41.8017 143.79H41.76C41.7127 143.781 41.671 143.753 41.6437 143.713C41.6164 143.674 41.6056 143.624 41.6138 143.577C41.6799 143.233 41.8677 142.926 42.1423 142.712C42.417 142.497 42.7597 142.39 43.1067 142.411C43.1551 142.413 43.2007 142.434 43.2339 142.469C43.2671 142.505 43.2852 142.552 43.2842 142.6C43.2843 142.625 43.2794 142.649 43.2698 142.671C43.2602 142.693 43.2462 142.714 43.2286 142.73C43.211 142.747 43.1902 142.76 43.1674 142.768C43.1447 142.777 43.1205 142.78 43.0963 142.779C42.837 142.763 42.5807 142.842 42.3744 143.001C42.168 143.159 42.0253 143.387 41.9723 143.643C41.9639 143.683 41.9426 143.719 41.9118 143.746C41.881 143.772 41.8423 143.788 41.8017 143.79Z" fill="#EBEBEB"/>
<path d="M65.9495 29.1342L62.988 30.8282V29.7782C62.988 29.7012 62.988 29.6277 62.988 29.5542C62.988 29.4807 62.988 29.4107 62.988 29.3407V29.3162C62.8801 27.9162 61.8292 27.3842 60.552 28.1297C59.9712 28.485 59.4737 28.9626 59.0939 29.5297C58.812 27.6502 57.2669 26.9502 55.4086 28.0317C53.3414 29.2322 51.6676 32.1477 51.6676 34.5452V36.8027C51.6677 36.9813 51.6212 37.1568 51.5326 37.3116C51.4441 37.4664 51.3166 37.5951 51.163 37.6847L49.423 38.7137C49.0452 38.9359 48.732 39.2539 48.5146 39.6359C48.2972 40.0179 48.1833 40.4505 48.1841 40.8907C48.1874 41.0716 48.2372 41.2486 48.3286 41.4045C48.4201 41.5604 48.55 41.6898 48.7058 41.7803C48.8616 41.8708 49.038 41.9193 49.2179 41.921C49.3979 41.9228 49.5752 41.8777 49.7327 41.7902L65.9042 32.3962C66.3319 32.1474 66.6874 31.7904 66.9353 31.3605C67.1832 30.9307 67.3148 30.4431 67.3171 29.9462C67.3192 29.7841 67.2787 29.6244 67.1997 29.4831C67.1207 29.3418 67.006 29.224 66.8672 29.1416C66.7284 29.0593 66.5705 29.0152 66.4094 29.0139C66.2482 29.0126 66.0896 29.0541 65.9495 29.1342Z" fill="#E6E6E6"/>
<path d="M39.0909 32.6343L36.888 33.8873V33.1068C36.888 33.0508 36.888 32.9948 36.888 32.9423C36.888 32.8898 36.888 32.8338 36.888 32.7848C36.808 31.7348 36.0319 31.3568 35.0819 31.9063C34.6519 32.1736 34.2849 32.5319 34.0066 32.9563C33.7908 31.5563 32.6529 31.0488 31.2783 31.8468C30.4698 32.3731 29.7963 33.0839 29.3125 33.9214C28.8288 34.7588 28.5484 35.6993 28.4943 36.6663V38.3358C28.4943 38.4676 28.46 38.5972 28.3946 38.7114C28.3293 38.8256 28.2352 38.9206 28.1219 38.9868L26.8343 39.7463C26.5547 39.9115 26.3229 40.1473 26.1618 40.4303C26.0006 40.7133 25.9158 41.0337 25.9156 41.3598C25.9159 41.4948 25.9515 41.6274 26.0188 41.7442C26.0862 41.861 26.1828 41.9579 26.2992 42.0253C26.4155 42.0927 26.5474 42.1281 26.6816 42.128C26.8159 42.1279 26.9477 42.0923 27.064 42.0248L39.0282 35.0738C39.3458 34.8894 39.6096 34.6241 39.7928 34.3046C39.9761 33.9851 40.0725 33.6227 40.0722 33.2538C40.0691 33.1386 40.0378 33.0259 39.981 32.9257C39.9241 32.8256 39.8436 32.7411 39.7465 32.6798C39.6494 32.6185 39.5387 32.5823 39.4243 32.5743C39.31 32.5664 39.1954 32.587 39.0909 32.6343Z" fill="#E6E6E6"/>
</g>
<defs>
<clipPath id="clip0_242_2590">
<rect width="174" height="175" fill="white"/>
</clipPath>
</defs>
</svg>
